<svg xmlns="http://www.w3.org/2000/svg" xmlns:xlink="http://www.w3.org/1999/xlink" width="630.909" height="630" viewBox="0 0 630.909 630">
  <defs>
    <filter id="Rectangle_75" x="81.5" y="50.5" width="164" height="158" filterUnits="userSpaceOnUse">
      <feOffset dy="3" input="SourceAlpha"/>
      <feGaussianBlur stdDeviation="7.5" result="blur"/>
      <feFlood flood-opacity="0.161"/>
      <feComposite operator="in" in2="blur"/>
      <feComposite in="SourceGraphic"/>
    </filter>
    <filter id="Rectangle_79" x="370.5" y="76.5" width="216" height="128" filterUnits="userSpaceOnUse">
      <feOffset dy="3" input="SourceAlpha"/>
      <feGaussianBlur stdDeviation="7.5" result="blur-2"/>
      <feFlood flood-opacity="0.161"/>
      <feComposite operator="in" in2="blur-2"/>
      <feComposite in="SourceGraphic"/>
    </filter>
  </defs>
  <g id="Gowork" transform="translate(-300 -3104)">
    <g id="Group_1290" data-name="Group 1290">
      <rect id="NoPath_-_Copy_2_" data-name="NoPath - Copy (2)" width="630" height="630" transform="translate(300 3104)" fill="#fff8e8"/>
      <g id="Group_1274" data-name="Group 1274" transform="translate(312.665 3341.048)">
        <path id="Arm" d="M7.124,0,34.556,22.446a76.9,76.9,0,0,1,18.986,8.81c1.168,1.182,2.531,3.523-2.534,2.865S40.585,33,39.792,34.7s2.176,3.934.635,6.2q-1.541,2.266-12.789-12.441L0,15.26Z" transform="translate(147.121 134.864) rotate(-3)" fill="#f7cddb" stroke="#000" stroke-width="2"/>
        <g id="Group_3" data-name="Group 3" transform="translate(191.438 138.125) rotate(25)">
          <g id="Rectangle_1" data-name="Rectangle 1" transform="translate(0 4.358)" fill="#fff" stroke="#000" stroke-width="2">
            <rect width="27.296" height="6.465" rx="3.232" stroke="none"/>
            <rect x="1" y="1" width="25.296" height="4.465" rx="2.232" fill="none"/>
          </g>
          <g id="Path_58" data-name="Path 58" transform="translate(3.004 9.387)" fill="#fff">
            <path d="M 17.71487998962402 32.04259872436523 L 3.625295162200928 32.04259872436523 L 1.085169315338135 0.9999974370002747 L 19.63659858703613 0.9999974370002747 L 17.71487998962402 32.04259872436523 Z" stroke="none"/>
            <path d="M 2.170339584350586 1.999998092651367 L 4.546802520751953 31.0425968170166 L 16.77486991882324 31.0425968170166 L 18.57277679443359 1.999998092651367 L 2.170339584350586 1.999998092651367 M 0 -3.814697265625e-06 L 20.70041847229004 -3.814697265625e-06 L 18.6548900604248 33.04259872436523 L 2.703769683837891 33.04259872436523 L 0 -3.814697265625e-06 Z" stroke="none"/>
          </g>
          <g id="Path_59" data-name="Path 59" transform="translate(3.878 20.071)" fill="#8ec48a">
            <path d="M 1.911804795265198 11.10226345062256 L 1.085173964500427 0.9999998807907104 L 18.13446617126465 0.9999998807907104 L 17.48511505126953 10.99391460418701 L 1.911804795265198 11.10226345062256 Z" stroke="none"/>
            <path d="M 2.17033576965332 2 L 2.832794189453125 10.09583759307861 L 16.54756355285645 10.0004186630249 L 17.06738090515137 2 L 2.17033576965332 2 M -5.7220458984375e-06 0 L 19.20154571533203 0 L 18.42267417907715 11.98742008209229 L 0.990814208984375 12.10869979858398 L -5.7220458984375e-06 0 Z" stroke="none"/>
          </g>
          <path id="Path_60" data-name="Path 60" d="M0,4.8V0H2.358l11.62,4.8Z" transform="translate(4.218 0)" fill="#fff" stroke="#000" stroke-linecap="round" stroke-width="2"/>
        </g>
        <g id="Head" transform="translate(85.467 6.225)">
          <path id="Head-2" data-name="Head" d="M0,65.382,7.4,30.891C3.273,26.047.48,20.11.946,13.458,2.292-5.71,28.973-1.493,34.162,8.181c2.081,3.88,3.229,10.149,3.432,16.656.048,1.511,3.753,4.681,3.663,6.758-.051,1.16-1.254,1.113-2.332,1.066-.851-.037-1.625-.074-1.692.483-.666,5.56-2.4,10.257-5.2,10.98-2.675.69-8.374-1-14.174-4.5L21.5,65.382Z" fill="#f7cddb" stroke="#000" stroke-width="2"/>
        </g>
        <path id="Hair" d="M9.331,41.48c-2.7-12-10.384-20.184-9.21-25.549A9.131,9.131,0,0,1,6.378,9.259S9.007-1.377,23.337.212s23.075,7.539,19.3,20.633c-3.472,0-7.663-1.256-13.459.9-2.758,1.024-3.946,6.35-3.946,6.35H22.611S18.8,21.77,15.092,23.445s-1.685,8.139-1.685,8.139l-1.29,9.9Z" transform="translate(81.884 -0.05)" fill="#191847" stroke="#000" stroke-width="2"/>
        <path id="Seat" d="M115.659,111.06H16a16,16,0,0,1-16-16V16A16,16,0,0,1,16,0h99.659a16,16,0,0,1,16,16V95.06a16,16,0,0,1-16,16ZM29.078,25.079a4,4,0,0,0-4,4v52.9a4,4,0,0,0,4,4h73.5a4,4,0,0,0,4-4v-52.9a4,4,0,0,0-4-4Z" transform="translate(11.128 183.562)" fill="#ffd194" stroke="#000" stroke-width="2"/>
        <path id="LegLower" d="M59.255,104.79Q32.767,72.445,23.411,56.832C12.73,39.009,3.988,23.151,1.23,17.093-5.348,2.647,16.374-4.118,21.29,2.62q11.162,15.3,47.674,96.274Z" transform="translate(172.344 185.353)" fill="#f7cddb" stroke="#000" stroke-width="2"/>
        <path id="LegLower-2" data-name="LegLower" d="M33.817,103,.954,20.274C-6.075,5.194,27.869-4.718,33.034,2.3c11.728,15.933,39.6,78.786,43.1,83.533Z" transform="translate(161.596 180.875)" fill="#4794f7" stroke="#000" stroke-width="2"/>
        <g id="Lower_Leg" data-name="Lower Leg" transform="translate(165.626 193.414) rotate(39)">
          <path id="LegLower-3" data-name="LegLower" d="M1.616,93.744C.715,82.458-.961,43.39.715,25.307c.482-5.2.989-10.221,1.5-14.934,1.52-14.009,27.5-13.566,25.433-.257-5.137,33.145-14.179,79.6-14.827,83.61C11.913,99.351,2.183,100.837,1.616,93.744Z" transform="translate(0 0)" fill="#f7cddb" stroke="#000" stroke-width="2"/>
        </g>
        <path id="shoe" d="M4.007,4.21a1.791,1.791,0,0,0-2.3,1.208L0,11.441a57.538,57.538,0,0,0,.807,7.07H51.323S53.292,12,49.05,11.482,42,10.545,42,10.545L18.522.078a.9.9,0,0,0-1.193.477L15.82,4.216S11.893,6.048,9.437,6.048Z" transform="translate(110.801 257.606) rotate(30)" fill="#e4e4e4" stroke="#000" stroke-miterlimit="10" stroke-width="2"/>
        <path id="shoe-2" data-name="shoe" d="M4.007,4.542a1.791,1.791,0,0,0-2.3,1.208L0,11.773a57.538,57.538,0,0,0,.807,7.07H51.323s1.969-6.51-2.273-7.029S42,10.877,42,10.877L18.522.41a.9.9,0,0,0-1.193.477L15.82,4.548S11.893,6.38,9.437,6.38Z" transform="translate(222.5 281.152)" fill="#e4e4e4" stroke="#000" stroke-miterlimit="10" stroke-width="2"/>
        <path id="Leg_and_Butt" data-name="Leg and Butt" d="M85.712,59.066s-40.971-6.675-54.886-9.128C4.384,45.275-3.327,31.046,1.232,0H49.951c9.671,2.793,80.817,34.544,80.817,34.544,8.534,4.236,6.944,16.727,5.385,20.842-.1.252-43.159,73.954-43.159,73.954L53.139,103.951,85.787,62.057S87.08,59.453,85.712,59.066Z" transform="translate(65.013 146.216)" fill="#4794f7" stroke="#000" stroke-width="2"/>
        <path id="Arm-2" data-name="Arm" d="M7.124,0,34.556,22.446c7.629,2.494,14.715,5.175,13.174,7.441-.648.953-5.33-.239-10.967-.575-2.874-.167-5.005,3.777-7.772.159L0,15.26Z" transform="translate(147.121 134.864) rotate(-3)" fill="#f7cddb" stroke="#000" stroke-width="2"/>
        <path id="Arm-3" data-name="Arm" d="M45.538,0S26.005,48.9,22.331,53.567c-1.8,2.279-12.729,8.041-20.115,11.09C-.748,65.881-.16,68.379.689,69.19c6.906,6.594,13.372,1.907,20.932.169,8.282-1.9,5.541,7.862,12.084,6.458-.961-4.5-3.624-13.065-.529-17.658C35.239,55.1,63.83,3.963,63.83,3.963Z" transform="translate(0 144.683) rotate(-12)" fill="#f7cddb" stroke="#000" stroke-width="2"/>
        <path id="Coat_Back" data-name="Coat Back" d="M0,2,7.6,0C38.389,22.224,54.3,68.7,91.593,90.8l-7.53,11.207C22.532,99.795,2.375,43.168,0,2Z" transform="matrix(0.996, 0.087, -0.087, 0.996, 97.907, 54.687)" fill="#cce0fc" stroke="#000" stroke-width="2"/>
        <path id="Shirt" d="M0,102.1s33.209-1.844,55.156-1.844c3.131,0,7.6-3.485,7.15-5.766C57.082,68.161,45,40.583,45,3.1L25.232,0C8.883,26.295,3.229,58.669,0,102.1Z" transform="translate(63.971 51.903)" fill="#dde3e9" stroke="#000" stroke-width="2"/>
        <path id="Coat_Front" data-name="Coat Front" d="M.091,139.721C-1.49,88.6,17.866,49.258,34.064,25.538a10.393,10.393,0,0,1-8.9-5.465C17.944,7.036,28.627,8.714,36.348,6.354,43.991,4.019,42.9.08,54.814,0h.367A9.585,9.585,0,0,1,56.65.1L63.208.48S87.926,83.46,75.985,113.638c0,0-25.488,3.69-39.212,3.69a41.716,41.716,0,0,1-11.093-1.2,194.759,194.759,0,0,1-10.892,23.587Z" transform="translate(32.533 51.902)" fill="#cce0fc" stroke="#000" stroke-width="2"/>
        <circle id="Ellipse_1" data-name="Ellipse 1" cx="1.343" cy="1.343" r="1.343" transform="translate(116.814 28.616)"/>
        <path id="Path_1" data-name="Path 1" d="M0,.77A7.642,7.642,0,0,1,2.937.009,4.831,4.831,0,0,1,5.378,1.254" transform="translate(114.304 26.414) rotate(-12)" fill="none" stroke="#000" stroke-linecap="round" stroke-width="2"/>
        <path id="Path_3" data-name="Path 3" d="M449.216,600.635a12.6,12.6,0,0,1-5.49-.992" transform="translate(-328.244 -556.121)" fill="none" stroke="#000" stroke-linecap="round" stroke-width="2"/>
        <path id="Path_50" data-name="Path 50" d="M677.774,195.078c1.109-.4,3.979-6.022,8.028-8.562,3.913-2.456,9.5-1.785,9.5-1.785" transform="translate(-611.318 -117.835)" fill="none" stroke="#000" stroke-linecap="round" stroke-width="2"/>
        <path id="Path_51" data-name="Path 51" d="M667.4,295.027s22.712-67.471,24.623-68.426" transform="translate(-611.131 -122.213)" fill="none" stroke="#000" stroke-linecap="round" stroke-width="2"/>
        <path id="Path_52" data-name="Path 52" d="M667.4,172.778c.79-.945.361-2.591,4.56-4.27s9.127-.239,9.127-.239" transform="translate(-600.383 -104.422)" fill="none" stroke="#000" stroke-linecap="round" stroke-width="2"/>
        <path id="Path_53" data-name="Path 53" d="M816.883,332.053s-6.142,8.189-11.055,10.373" transform="translate(-623.786 -131.426)" fill="none" stroke="#000" stroke-linecap="round" stroke-width="2"/>
        <path id="Path_54" data-name="Path 54" d="M5.379,5.047S2.391,1.062,0,0" transform="translate(189.792 213.486) rotate(81)" fill="none" stroke="#000" stroke-linecap="round" stroke-width="2"/>
        <path id="Path_55" data-name="Path 55" d="M702.141,293.268s3.846,0,8.573-.435,10.336-1.308,10.336-1.308" transform="translate(-616.548 -128.988)" fill="none" stroke="#000" stroke-linecap="round" stroke-width="2"/>
        <path id="Path_56" data-name="Path 56" d="M750.331,414.875l-1.373,4.684,5.976,2.261,1.05,4.926" transform="translate(-619.643 -141.861)" fill="none" stroke="#000" stroke-linecap="round" stroke-width="2"/>
        <path id="Path_57" data-name="Path 57" d="M1.373,0,0,4.684,5.976,6.945l1.05,4.926" transform="matrix(0.848, -0.53, 0.53, 0.848, 244.032, 284.734)" fill="none" stroke="#000" stroke-linecap="round" stroke-width="2"/>
      </g>
      <g id="Group_1275" data-name="Group 1275" transform="translate(328.128 3558.542)">
        <g id="Path_94" data-name="Path 94" transform="translate(22.143)" fill="#a2cfad">
          <path d="M 8.552002906799316 52.26676177978516 C 4.387813091278076 52.26676177978516 1.000002861022949 48.87895202636719 1.000002861022949 44.71475982666016 L 1.000002861022949 10.56610107421875 C 1.000002861022949 8.437440872192383 1.860972881317139 6.025500774383545 3.303092956542969 4.114181041717529 C 4.023842811584473 3.158921003341675 4.867332935333252 2.373010873794556 5.742393016815186 1.841410875320435 C 6.661412715911865 1.283090949058533 7.60670280456543 1.000000834465027 8.552002906799316 1.000000834465027 C 10.18323707580566 1.000000834465027 11.96538066864014 2.457886934280396 13.45347595214844 5.005027294158936 C 13.47436618804932 5.422282695770264 13.25941181182861 6.736770153045654 12.9703426361084 7.933920860290527 L 12.54458332061768 9.697151184082031 L 14.2628231048584 9.116021156311035 C 14.48118782043457 9.042784690856934 14.8935546875 8.933040618896484 15.2120304107666 8.899696350097656 C 15.79645252227783 10.65493583679199 16.10400199890137 12.24881935119629 16.10400199890137 13.53085136413574 L 16.10400199890137 44.71475982666016 C 16.10400199890137 48.87895202636719 12.71619319915771 52.26676177978516 8.552002906799316 52.26676177978516 Z" stroke="none"/>
          <path d="M 8.552002906799316 2 C 7.026123046875 2 5.403923034667969 2.990119934082031 4.101363182067871 4.716480255126953 C 2.805192947387695 6.434360504150391 2.000002861022949 8.675800323486328 2.000002861022949 10.56610107421875 L 2.000002861022949 44.71475982666016 C 2.000002861022949 48.32755279541016 4.939212799072266 51.26676177978516 8.552002906799316 51.26676177978516 C 12.16479301452637 51.26676177978516 15.10400295257568 48.32755279541016 15.10400295257568 44.71475982666016 L 15.10400295257568 13.53084945678711 C 15.10400295257568 12.5794792175293 14.90367412567139 11.38451385498047 14.53093910217285 10.08130264282227 L 11.14227294921875 11.24792098999023 L 11.99825286865234 7.699310302734375 C 12.21587562561035 6.797161102294922 12.4005012512207 5.773624420166016 12.44370269775391 5.264919281005859 C 11.20516204833984 3.241279602050781 9.734378814697266 2 8.552002906799316 2 M 8.552002906799316 0 C 10.84274291992188 0 12.92312240600586 2.071819305419922 14.3829927444458 4.614669799804688 C 14.67753314971924 5.127250671386719 13.9423828125 8.168750762939453 13.9423828125 8.168750762939453 C 13.9423828125 8.168750762939453 14.76718139648438 7.889743804931641 15.38238716125488 7.889743804931641 C 15.68996238708496 7.889743804931641 15.9451904296875 7.959506988525391 16.0186824798584 8.168750762939453 C 16.73476219177246 10.2034912109375 17.10400199890137 12.06412124633789 17.10400199890137 13.53084945678711 L 17.10400199890137 44.71475982666016 C 17.10400199890137 49.43790054321289 13.27514266967773 53.26676177978516 8.552002906799316 53.26676177978516 C 3.828863143920898 53.26676177978516 3.814697265625e-06 49.43790054321289 3.814697265625e-06 44.71475982666016 L 3.814697265625e-06 10.56610107421875 C 3.814697265625e-06 5.842960357666016 3.828863143920898 0 8.552002906799316 0 Z" stroke="none"/>
        </g>
        <g id="Path_95" data-name="Path 95" transform="translate(-2.452 14.661)" fill="#6ac98a">
          <path d="M 17.99791717529297 32.71932220458984 C 15.85889625549316 32.71932220458984 14.04922676086426 32.40988159179688 12.61918640136719 31.79960250854492 C 11.27947616577148 31.22788238525391 10.23489665985107 30.39218330383301 9.425736427307129 29.2447624206543 C 7.909026145935059 27.09399223327637 7.202606201171875 23.81936264038086 7.202606201171875 18.93932342529297 C 7.202606201171875 14.10040092468262 7.88096809387207 10.02997303009033 9.166499137878418 7.139760494232178 C 9.216938972473145 7.135634422302246 9.281085014343262 7.132643222808838 9.361056327819824 7.132643222808838 C 10.03439617156982 7.132643222808838 11.01931667327881 7.340192794799805 11.34199619293213 7.420163154602051 L 12.88440608978271 7.802433013916016 L 12.56221675872803 6.246592998504639 C 12.27878761291504 4.875759601593018 12.1608247756958 3.313136577606201 12.29902362823486 2.852072238922119 C 13.90929126739502 1.60584545135498 15.7746410369873 1.000002980232239 17.99791717529297 1.000002980232239 C 22.86112594604492 1.000002980232239 25.86640548706055 4.548253059387207 27.53115653991699 7.524863243103027 C 29.59456634521484 11.21428298950195 30.82644653320312 16.27302360534668 30.82644653320312 21.05698394775391 C 30.82644653320312 23.28251266479492 30.56638717651367 25.1064338684082 30.03141593933105 26.63296318054199 C 29.52214622497559 28.08616256713867 28.77468681335449 29.22892379760742 27.74633598327637 30.12653350830078 C 26.72920608520508 31.01435279846191 25.44831657409668 31.65453338623047 23.8304557800293 32.08366394042969 C 22.21787643432617 32.51139450073242 20.31003570556641 32.71932220458984 17.99791717529297 32.71932220458984 Z" stroke="none"/>
          <path d="M 17.99791717529297 2.000003814697266 C 16.1293830871582 2.000003814697266 14.60408401489258 2.446531295776367 13.24058151245117 3.400150299072266 C 13.22547340393066 3.986394882202148 13.34748649597168 5.102754592895508 13.5413761138916 6.043523788452148 L 14.18745613098145 9.158882141113281 L 11.09999656677246 8.390443801879883 C 10.84890556335449 8.327951431274414 10.30427742004395 8.216009140014648 9.823003768920898 8.162595748901367 C 8.760799407958984 10.87942886352539 8.202606201171875 14.57748794555664 8.202606201171875 18.93932342529297 C 8.202606201171875 23.60300254821777 8.850946426391602 26.69450378417969 10.24297714233398 28.66845321655273 C 11.71079635620117 30.74989318847656 14.17497634887695 31.71932220458984 17.99791717529297 31.71932220458984 C 22.30643653869629 31.71932220458984 25.28006744384766 30.95188331604004 27.0887451171875 29.37315368652344 C 27.98329544067383 28.59233283996582 28.63715744018555 27.58782196044922 29.08769607543945 26.30223274230957 C 29.57789611816406 24.9034538269043 29.82644653320312 23.13870239257812 29.82644653320312 21.05698394775391 C 29.82644653320312 16.43622207641602 28.64212608337402 11.55996322631836 26.65837669372559 8.012983322143555 C 25.5912971496582 6.105003356933594 24.33313751220703 4.621702194213867 22.91887664794922 3.604282379150391 C 21.43913650512695 2.539762496948242 19.78349685668945 2.000003814697266 17.99791717529297 2.000003814697266 M 17.99791717529297 3.814697265625e-06 C 27.30924606323242 3.814697265625e-06 31.82644653320312 11.74564361572266 31.82644653320312 21.05698394775391 C 31.82644653320312 30.36831283569336 27.30924606323242 33.71932220458984 17.99791717529297 33.71932220458984 C 8.686576843261719 33.71932220458984 6.202606201171875 28.25065231323242 6.202606201171875 18.93932342529297 C 6.202606201171875 14.43261337280273 6.784496307373047 9.851713180541992 8.382486343383789 6.449653625488281 C 8.494096755981445 6.211864471435547 8.886821746826172 6.132638931274414 9.361057281494141 6.132638931274414 C 10.30935287475586 6.132638931274414 11.58304595947266 6.449653625488281 11.58304595947266 6.449653625488281 C 11.58304595947266 6.449653625488281 10.81592559814453 2.750642776489258 11.58304595947266 2.142742156982422 C 13.33901596069336 0.7475013732910156 15.40342712402344 3.814697265625e-06 17.99791717529297 3.814697265625e-06 Z" stroke="none"/>
        </g>
        <g id="Group_17" data-name="Group 17" transform="translate(0 42.72)">
          <path id="Path_21" data-name="Path 21" d="M1715.552,360.418h-47.558l7.466,39.471h33.733Z" transform="translate(-1667.993 -360.418)" fill="#ee7f6c" stroke="#000" stroke-width="2"/>
          <path id="Path_25" data-name="Path 25" d="M271.543,825.272l3.424,19.053" transform="translate(-265.877 -814.51)" fill="none" stroke="#fff" stroke-linecap="round" stroke-width="2"/>
          <path id="Path_42" data-name="Path 42" d="M277.85,825.272l.342,1.593" transform="translate(-273.162 -820.375)" fill="none" stroke="#fff" stroke-linecap="round" stroke-width="2"/>
        </g>
        <path id="Path_96" data-name="Path 96" d="M200.773,1363.357s1.754,5.419,1.754,8.771a32.9,32.9,0,0,1-1,7.142" transform="translate(-186.626 -1336.793)" fill="none" stroke="#000" stroke-linecap="round" stroke-width="2"/>
        <path id="Path_97" data-name="Path 97" d="M202.967,1365.507s.614,8.7.614,12.634" transform="translate(-171.909 -1342.23)" fill="none" stroke="#000" stroke-linecap="round" stroke-width="2"/>
        <path id="Path_98" data-name="Path 98" d="M203.961,1341.3s.113,1.666.263,4.023" transform="translate(-172.289 -1302.55)" fill="none" stroke="#000" stroke-linecap="round" stroke-width="2"/>
      </g>
      <g id="Group_1277" data-name="Group 1277" transform="translate(699 3351.204)">
        <path id="Hair_Back" data-name="Hair Back" d="M19.031,0l0,.032A17.983,17.983,0,0,0,1.709,18L0,43.715c0,9.932,9.759,14.194,19.691,14.194H24.5A17.983,17.983,0,0,0,42.47,40.6c3.092-11.83,6.9-36.638,2.837-40.6Z" transform="matrix(-0.999, 0.035, -0.035, -0.999, 145.531, 58.105)"/>
        <g id="Head-3" data-name="Head" transform="matrix(-0.999, 0.035, -0.035, -0.999, 140.68, 73.336)">
          <path id="Head-4" data-name="Head" d="M0,0,7.486,34.832C3.311,39.724.485,45.72.957,52.438c1.361,19.356,28.353,15.1,33.6,5.329s4.627-34.551-2.159-36.3c-2.706-.7-8.471,1.009-14.339,4.54L21.746,0Z" transform="translate(0 0)" fill="#b28b67" stroke="#000" stroke-width="2"/>
        </g>
        <path id="Hair_Front" data-name="Hair Front" d="M26.383,0H.107A47.031,47.031,0,0,0,.255,8.206a22.528,22.528,0,0,0,1.32,5.584,21.132,21.132,0,0,0,4.632,6.838c3.237,3.564,6.585,7.249,6.585,18.839.188.183.376.369.558.548l.006.006C15.064,43.1,21.329,53.134,30.23,53.134c4.672,0,8.33-.965,11.183-2.95a21.719,21.719,0,0,0,5.434-6.051l.008-.011c-1.474-5.049-5.861-7.066-10.941-9.4a59.592,59.592,0,0,1-6.621-3.393,4.975,4.975,0,1,1-.313-7.961c.637-8.991.339-20.5-2.6-23.366Z" transform="matrix(-0.999, 0.035, -0.035, -0.999, 158.159, 53.101)"/>
        <g id="Seat-2" data-name="Seat" transform="translate(90.172 183.086)">
          <path id="Seat_Stuff" data-name="Seat Stuff" d="M73.08,0H8.466L0,103.711H96.183Z" transform="translate(0)" fill="#c5cfd6" stroke="#000" stroke-width="2"/>
          <path id="Seat_Stuff-2" data-name="Seat Stuff" d="M31.766,0H11.894L0,103.711H54.869Z" transform="translate(41.314)" fill="rgba(0,0,0,0.1)" stroke="#000" stroke-width="2"/>
        </g>
        <path id="LegLower-4" data-name="LegLower" d="M1.137.841S-.986,39.848.57,56.8C2.347,76.154,4.5,92.958,5.761,99.059c3,14.549,23.083,7.8,23.072,0C28.809,81.358,11.694,0,11.694,0Z" transform="translate(93.973 255.141) rotate(160)" fill="#ca9f7e" stroke="#000" stroke-width="2"/>
        <path id="LegLower-5" data-name="LegLower" d="M27.427,114.983c.837-10.581,2.393-47.209.836-64.162-1.776-19.353-3.931-36.156-5.191-42.257C20.067-5.986-.01.766,0,8.563c.024,17.7,16.178,101.128,17.022,106.4S26.9,121.632,27.427,114.983Z" transform="translate(17.407 162.176)" fill="#ca9f7e" stroke="#000" stroke-width="2"/>
        <path id="LegLower-6" data-name="LegLower" d="M0,0,4.28,84.9c3.085,14.681,29.2,7.867,29.184,0C33.44,67.039,22.711,5.339,22.7.017Z" transform="translate(91.928 240.901) rotate(160)" fill="#ffa8a8" stroke="#000" stroke-width="2"/>
        <path id="shoe-3" data-name="shoe" d="M3.742,13.354A1.673,1.673,0,0,1,1.6,12.227L0,6.6A53.73,53.73,0,0,1,.754,0H47.927S49.766,6.079,45.8,6.564s-6.582.875-6.582.875L17.3,17.214a.836.836,0,0,1-1.114-.445L14.773,13.35s-3.668-1.711-5.96-1.711Z" transform="translate(101.085 259.673) rotate(150)" stroke="#000" stroke-miterlimit="10" stroke-width="2"/>
        <path id="shoe-4" data-name="shoe" d="M44.611,4.264a1.673,1.673,0,0,1,2.145,1.128l1.6,5.624a53.73,53.73,0,0,1-.754,6.6H.426s-1.839-6.079,2.123-6.564,6.582-.875,6.582-.875L31.057.4A.836.836,0,0,1,32.171.85L33.58,4.269S37.247,5.98,39.54,5.98Z" transform="translate(0 267.505)" stroke="#000" stroke-miterlimit="10" stroke-width="2"/>
        <path id="Leg_and_Butt-2" data-name="Leg and Butt" d="M0,30.472c0,22.22,10.552,74.05,10.559,78.943l22.7.017S28.278,40.06,29.728,39.313,89.153,45.1,106.541,45.1c25.073,0,35.446-15.811,36.287-45.1H93.159C83.046,1.082,30.295,11.722,10.7,15.38,2.317,16.945,0,24.351,0,30.472Z" transform="translate(15.09 146.285)" fill="#ffa8a8" stroke="#000" stroke-width="2"/>
        <path id="Arm-4" data-name="Arm" d="M6.653,38.473,32.27,17.513A71.814,71.814,0,0,0,50,9.286C51.09,8.182,52.363,6,47.633,6.611S37.9,7.658,37.159,6.073s2.032-3.674.593-5.79Q36.313-1.834,25.81,11.9L0,24.223Z" transform="matrix(-0.996, 0.087, -0.087, -0.996, 76.321, 173.545)" fill="#ca9f7e" stroke="#000" stroke-width="2"/>
        <path id="Arm-5" data-name="Arm" d="M49.568,85.31s-25.283-60.05-28.714-64.4C19.176,18.778,8.966,13.4,2.069,10.55-.7,9.407-.149,7.074.643,6.317,7.092.16,13.13,4.537,20.19,6.16,27.924,7.938,25.364-1.181,31.475.129c-.9,4.2-3.384,12.2-.494,16.489,1.927,2.859,36.487,64.817,36.487,64.817Z" transform="matrix(-0.978, -0.208, 0.208, -0.978, 212.946, 208.631)" fill="#ca9f7e" stroke="#000" stroke-width="2"/>
        <path id="Clothes_Back" data-name="Clothes Back" d="M0,92.81l7.1,1.866A104.668,104.668,0,0,1,23.55,66.456c17.655-22.045,41.164-35.576,50.3-40.4,12.493-6.6,12.293-13.369,13.815-18.164L80.882,1.207c-3.745-.27-6.657-2.24-13.932-.49S4.156,45.3,0,92.81Z" transform="matrix(-0.996, 0.087, -0.087, -0.996, 134.48, 155.382)" fill="#fff" stroke="#000" stroke-width="2"/>
        <path id="Union_1" data-name="Union 1" d="M53.561,124.673l-.262-3.75A127.616,127.616,0,0,1,24.576,94.361c-6.411-8.208-8.74-17.055-14.437-29.561C4.452,52.313,3.123,37.888.539,20.761c-1.555-10.308.834-12.927,0-17.54L11.169,0c6.238,6.527,11,18.079,13.407,26.895,1.5,5.493,3.775,12.058,6.492,19.122C29.272,31.354,30.3,17.538,36,7.023,45.394-10.292,99.66,8.7,105.329,26.359c2.362,7.362-8.89,10.171-12.726,17.818-6.908,13.772-11.716,34.408-10.54,68.614q.021.148.032.3l.668,9.541a4,4,0,0,1-3.712,4.269L57.83,128.384q-.142.01-.283.01A4,4,0,0,1,53.561,124.673Z" transform="translate(196.431 182.947) rotate(180)" fill="#fff" stroke="#000" stroke-width="2"/>
        <g id="Group_2" data-name="Group 2" transform="translate(101.561 23.432)">
          <circle id="Ellipse_1-2" data-name="Ellipse 1" cx="1.255" cy="1.255" r="1.255" transform="translate(10.357 3.252)"/>
          <circle id="Ellipse_2" data-name="Ellipse 2" cx="1.255" cy="1.255" r="1.255" transform="translate(1.156 3.252)"/>
          <path id="Path_1-2" data-name="Path 1" d="M0,.452A25.226,25.226,0,0,0,5.022,0" transform="matrix(-0.978, -0.208, 0.208, -0.978, 14.13, 1.505)" fill="none" stroke="#000" stroke-linecap="round" stroke-width="2"/>
          <path id="Path_4" data-name="Path 4" d="M445.019,588.046l-2.146,5.975h4.119" transform="translate(-439.037 -580.574)" fill="none" stroke="#000" stroke-linecap="round" stroke-width="2"/>
          <path id="Path_5" data-name="Path 5" d="M0,.452A25.226,25.226,0,0,0,5.022,0" transform="matrix(-0.995, -0.105, 0.105, -0.995, 4.995, 1.249)" fill="none" stroke="#000" stroke-linecap="round" stroke-width="2"/>
          <path id="Path_3-2" data-name="Path 3" d="M443.726,599.866s2.941,2.15,6.787-1.319" transform="translate(-438.255 -581.456)" fill="none" stroke="#000" stroke-linecap="round" stroke-width="2"/>
        </g>
        <path id="Path_10" data-name="Path 10" d="M386.751,727.365s-7.388-23.182-12-35.9" transform="translate(-220.265 -586.609)" fill="none" stroke="#000" stroke-linecap="round" stroke-width="2"/>
        <path id="Path_11" data-name="Path 11" d="M29.658,0S21.705,8.842,0,12.322" transform="translate(57.935 142.622) rotate(-21)" fill="none" stroke="#000" stroke-linecap="round" stroke-width="2"/>
        <path id="Path_12" data-name="Path 12" d="M7.388,2.965a8.213,8.213,0,0,0-2.78-1.744A19.744,19.744,0,0,0,0,0" transform="matrix(-0.309, 0.951, -0.951, -0.309, 155.227, 160.541)" fill="none" stroke="#000" stroke-linecap="round" stroke-width="2"/>
        <path id="Path_92" data-name="Path 92" d="M257.231,748.352c.781.2.39,3.417,8.981,1.855s13.568,0,13.568,0" transform="translate(-133.765 -685.41)" fill="none" stroke="#000" stroke-linecap="round" stroke-width="2"/>
        <path id="Path_93" data-name="Path 93" d="M260.032,737.147c.125,0,.209,4.979.209,4.979" transform="translate(-124.096 -681.904)" fill="none" stroke="#000" stroke-linecap="round" stroke-width="2"/>
      </g>
      <g id="Group_1278" data-name="Group 1278" transform="translate(-109 3)">
        <path id="Path_5488" data-name="Path 5488" d="M0,158.261l9.848-1.914L6.119-37.625l-2.56.5Z" transform="translate(767.278 3605.05) rotate(-169)"/>
        <g id="Rectangle_66" data-name="Rectangle 66" transform="translate(778 3438)" fill="#fff" stroke="#000" stroke-width="2">
          <rect width="41" height="12" rx="2" stroke="none"/>
          <rect x="1" y="1" width="39" height="10" rx="1" fill="none"/>
        </g>
        <g id="Rectangle_67" data-name="Rectangle 67" transform="translate(774 3407)" fill="#6e6e6e" stroke="#000" stroke-width="2">
          <rect width="49" height="31" rx="6" stroke="none"/>
          <rect x="1" y="1" width="47" height="29" rx="5" fill="none"/>
        </g>
        <g id="Rectangle_68" data-name="Rectangle 68" transform="translate(769 3413)" fill="#6e6e6e" stroke="#000" stroke-width="2">
          <rect width="7" height="19" stroke="none"/>
          <rect x="1" y="1" width="5" height="17" fill="none"/>
        </g>
        <g id="Rectangle_69" data-name="Rectangle 69" transform="translate(760 3410)" fill="#4d4d4d" stroke="#000" stroke-width="2">
          <path d="M0,0H9a3,3,0,0,1,3,3V22a3,3,0,0,1-3,3H0a0,0,0,0,1,0,0V0A0,0,0,0,1,0,0Z" stroke="none"/>
          <path d="M2,1H9a2,2,0,0,1,2,2V22a2,2,0,0,1-2,2H2a1,1,0,0,1-1-1V2A1,1,0,0,1,2,1Z" fill="none"/>
        </g>
        <path id="Path_5489" data-name="Path 5489" d="M0,0,9.849,1.914,6.119,195.886l-2.435-.473Z" transform="translate(799.432 3448.696) rotate(-11)"/>
        <g id="Rectangle_71" data-name="Rectangle 71" transform="translate(782 3413)" fill="#b7b7b7" stroke="#000" stroke-width="2">
          <rect width="30" height="8" rx="2" stroke="none"/>
          <rect x="1" y="1" width="28" height="6" rx="1" fill="none"/>
        </g>
        <rect id="Rectangle_72" data-name="Rectangle 72" width="4" height="5" rx="2" transform="translate(781 3404)"/>
        <g id="Rectangle_73" data-name="Rectangle 73" transform="translate(814 3414)" fill="#6e6e6e" stroke="#000" stroke-width="2">
          <rect width="5" height="15" stroke="none"/>
          <rect x="1" y="1" width="3" height="13" fill="none"/>
        </g>
        <path id="Path_5490" data-name="Path 5490" d="M2789.712,3451l4.372,192.015h1.7l4.1-192.015Z" transform="translate(-1996.191 -2)" fill="#3b3a3a" stroke="#000" stroke-width="2"/>
      </g>
      <g id="Group_1283" data-name="Group 1283" transform="matrix(0.891, -0.454, 0.454, 0.891, 359.383, 3169.701)">
        <g id="Union_13" data-name="Union 13" transform="translate(63.428 50.595) rotate(180)" fill="#ecf9ff">
          <path d="M 40.69971084594727 46.99965286254883 C 38.29899215698242 46.99965286254883 35.9759407043457 46.31370544433594 33.98171997070312 45.01596450805664 C 32.03842163085938 43.7513542175293 30.50783157348633 41.97952270507812 29.55541038513184 39.89201354980469 L 29.14898109436035 39.00118637084961 L 28.24980163574219 39.38877487182617 C 26.17221069335938 40.28429412841797 23.95912170410156 40.73836517333984 21.67200088500977 40.73836517333984 C 19.79748153686523 40.73836517333984 17.95933151245117 40.43008422851562 16.20863151550293 39.82207489013672 C 14.51693153381348 39.23456573486328 12.94072151184082 38.38010406494141 11.52378177642822 37.28241348266602 C 8.695621490478516 35.09147262573242 6.645571231842041 32.00522613525391 5.751281261444092 28.59218406677246 L 5.663261413574219 28.25623512268066 L 5.385951519012451 28.04716491699219 C 4.051221370697021 27.04087448120117 2.946581363677979 25.7298641204834 2.191441297531128 24.2558650970459 C 1.400861382484436 22.71268463134766 1.000001311302185 21.04666519165039 1.000001311302185 19.30407524108887 C 1.000001311302185 16.36831474304199 2.158931255340576 13.60763454437256 4.263291358947754 11.53060436248779 C 6.371121406555176 9.450154304504395 9.17457103729248 8.304394721984863 12.15723133087158 8.304394721984863 L 12.17346096038818 8.304444313049316 L 12.70360088348389 8.304444313049316 L 13.00112152099609 7.865664482116699 C 14.58717155456543 5.526634693145752 17.23579216003418 4.130204677581787 20.086181640625 4.130204677581787 C 22.26946067810059 4.130204677581787 24.34552192687988 4.943764686584473 25.93192100524902 6.421014308929443 L 26.77741050720215 7.208324432373047 L 27.43538093566895 6.258694648742676 C 29.71687126159668 2.965874433517456 33.49016189575195 1.000004529953003 37.5289306640625 1.000004529953003 C 40.55812072753906 1.000004529953003 43.4634895324707 2.101074457168579 45.70984268188477 4.100384712219238 C 47.93680953979492 6.08243465423584 49.34287261962891 8.785304069519043 49.66900253295898 11.71107482910156 L 49.78388977050781 12.74183464050293 L 50.80977249145508 12.58944416046143 C 51.30899047851562 12.51528453826904 51.81999969482422 12.47768497467041 52.32860946655273 12.47768497467041 L 52.34297943115234 12.47773456573486 L 52.35507965087891 12.47778415679932 L 52.8000602722168 12.47914409637451 L 53.09896087646484 12.14950466156006 C 54.11252212524414 11.03169441223145 55.56571197509766 10.39059448242188 57.08594131469727 10.39059448242188 C 60.03168106079102 10.39059448242188 62.42822265625 12.75079441070557 62.42822265625 15.65188407897949 C 62.42822265625 16.50946426391602 62.22570037841797 17.32661437988281 61.82629013061523 18.08062362670898 L 61.6132698059082 18.48275375366211 L 61.77654266357422 18.90752410888672 C 62.20896148681641 20.0324649810791 62.42822265625 21.21903419494629 62.42822265625 22.43427467346191 C 62.42822265625 24.8596248626709 61.53354263305664 27.19624519348145 59.90900039672852 29.01371383666992 C 58.29578018188477 30.81851387023926 56.08280944824219 31.98663520812988 53.67773056030273 32.30290603637695 L 52.68891143798828 32.43292617797852 L 52.81629943847656 33.42209625244141 C 52.88133239746094 33.92707443237305 52.91431045532227 34.44314575195312 52.91431045532227 34.95596313476562 C 52.91431045532227 38.17038345336914 51.64538955688477 41.19316482543945 49.34130096435547 43.46746444702148 C 47.0337028503418 45.74523544311523 43.9647331237793 46.99965286254883 40.69971084594727 46.99965286254883 Z" stroke="none"/>
          <path d="M 37.5289306640625 1.999996185302734 C 33.81809997558594 1.999996185302734 30.35209274291992 3.804935455322266 28.25735092163086 6.828212738037109 L 26.94142150878906 8.727474212646484 L 25.25044250488281 7.152843475341797 C 23.8497314453125 5.848526000976562 22.01570129394531 5.130195617675781 20.086181640625 5.130195617675781 C 17.56775283813477 5.130195617675781 15.22854232788086 6.362606048583984 13.82879257202148 8.426895141601562 L 13.23240280151367 9.306423187255859 L 12.16974258422852 9.304443359375 L 12.15722274780273 9.304393768310547 C 6.556510925292969 9.304393768310547 2 13.79023361206055 2 19.30407524108887 C 2 20.8865852355957 2.363849639892578 22.39920425415039 3.081439971923828 23.7999153137207 C 3.768100738525391 25.14023399353027 4.773151397705078 26.33279418945312 5.987953186035156 27.2486743927002 L 6.542560577392578 27.66682434082031 L 6.718620300292969 28.33872413635254 C 7.557350158691406 31.53969383239746 9.481342315673828 34.43520355224609 12.13619232177734 36.49187469482422 C 14.87778091430664 38.61574554443359 18.17521286010742 39.73836517333984 21.67200088500977 39.73836517333984 C 23.82220077514648 39.73836517333984 25.9021110534668 39.31177520751953 27.85396194458008 38.47045516967773 L 29.6523323059082 37.69528579711914 L 30.46520233154297 39.47692489624023 C 31.33866119384766 41.39139556884766 32.74326324462891 43.01693344116211 34.52715301513672 44.17779541015625 C 36.35867309570312 45.36966323852539 38.49311065673828 45.9996452331543 40.69971084594727 45.9996452331543 C 43.7000732421875 45.9996452331543 46.51956176757812 44.84761428833008 48.63880920410156 42.75576400756836 C 50.75104141235352 40.67083358764648 51.91429901123047 37.90081405639648 51.91429901123047 34.95596313476562 C 51.91429901123047 34.48563385009766 51.88407897949219 34.01255416870117 51.82449340820312 33.54985427856445 L 51.56967163085938 31.57149505615234 L 53.5473518371582 31.31143379211426 C 55.71517944335938 31.02637481689453 57.70967102050781 29.97368431091309 59.16342926025391 28.3472843170166 C 60.6239013671875 26.71337509155273 61.42822265625 24.61342430114746 61.42822265625 22.43427467346191 C 61.42822265625 21.3421745300293 61.23137283325195 20.27632522583008 60.84313201904297 19.26631546020508 L 60.51658248901367 18.41678428649902 L 60.94261169433594 17.61252403259277 C 61.26484298706055 17.00422477722168 61.42822265625 16.34457397460938 61.42822265625 15.65188598632812 C 61.42822265625 13.30220413208008 59.48028182983398 11.39059448242188 57.08592987060547 11.39059448242188 C 55.84733200073242 11.39059448242188 54.66415023803711 11.91203308105469 53.83975982666016 12.82121276855469 L 53.24278259277344 13.47959518432617 L 52.35404968261719 13.47777557373047 L 52.33760070800781 13.47771453857422 L 52.32861328125 13.47768402099609 C 51.86901092529297 13.47768402099609 51.40744018554688 13.51163482666016 50.95671081542969 13.57858276367188 L 48.90495300292969 13.88337326049805 L 48.67515182495117 11.82186508178711 C 48.37641906738281 9.141902923583984 47.08721160888672 6.664985656738281 45.04500198364258 4.847366333007812 C 42.98197174072266 3.011215209960938 40.31271362304688 1.999996185302734 37.5289306640625 1.999996185302734 M 37.5289306640625 -3.814697265625e-06 C 44.33301162719727 -3.814697265625e-06 49.93553924560547 5.075614929199219 50.662841796875 11.60029602050781 C 51.20616912841797 11.51958465576172 51.762451171875 11.47768402099609 52.32861328125 11.47768402099609 C 52.33824920654297 11.47768402099609 52.34839248657227 11.47775268554688 52.35815048217773 11.47777557373047 C 53.5196533203125 10.19681549072266 55.20751953125 9.390594482421875 57.08592987060547 9.390594482421875 C 60.58874130249023 9.390594482421875 63.42822265625 12.19408416748047 63.42822265625 15.65188598632812 C 63.42822265625 16.69719505310059 63.1688232421875 17.6824951171875 62.7099609375 18.54872512817383 C 63.17419052124023 19.75642395019531 63.42822265625 21.06600379943848 63.42822265625 22.43427467346191 C 63.42822265625 27.99055480957031 59.23852157592773 32.58027648925781 53.80810165405273 33.29436492919922 C 53.87817001342773 33.83837509155273 53.91429901123047 34.39318466186523 53.91429901123047 34.95596313476562 C 53.91429901123047 42.15955352783203 47.997802734375 47.9996452331543 40.69971084594727 47.9996452331543 C 35.33349227905273 47.9996452331543 30.71483993530273 44.84240341186523 28.6456298828125 40.30709457397461 C 26.50989151000977 41.22768402099609 24.15124130249023 41.73836517333984 21.67200088500977 41.73836517333984 C 13.55126953125 41.73836517333984 6.72705078125 36.26149368286133 4.783931732177734 28.84565544128418 C 1.875850677490234 26.65315437316895 0 23.19512367248535 0 19.30407524108887 C 0 12.67648315429688 5.443111419677734 7.304393768310547 12.15722274780273 7.304393768310547 C 12.16247177124023 7.304393768310547 12.1680908203125 7.304435729980469 12.1734619140625 7.304443359375 C 13.88025283813477 4.787353515625 16.78699111938477 3.130195617675781 20.086181640625 3.130195617675781 C 22.61291122436523 3.130195617675781 24.9097900390625 4.102783203125 26.61339950561523 5.689174652099609 C 28.9935302734375 2.253993988037109 32.99451065063477 -3.814697265625e-06 37.5289306640625 -3.814697265625e-06 Z" stroke="none"/>
        </g>
        <path id="Path_5493" data-name="Path 5493" d="M0,14.216a7.256,7.256,0,0,0,5.026-2.082A6.922,6.922,0,0,0,7.108,7.108,7.108,7.108,0,0,0,0,0" transform="matrix(0.545, -0.839, 0.839, 0.545, 43.047, 10.6)" fill="#ecf9ff" stroke="#000" stroke-linecap="round" stroke-width="2"/>
        <path id="Path_5494" data-name="Path 5494" d="M0,6.561A3.349,3.349,0,0,0,2.32,5.6,3.2,3.2,0,0,0,3.28,3.28,3.28,3.28,0,0,0,0,0" transform="translate(54.641 22.841) rotate(-60)" fill="#ecf9ff" stroke="#000" stroke-linecap="round" stroke-width="2"/>
      </g>
      <g id="Group_1282" data-name="Group 1282" transform="translate(165 34)">
        <g id="Ellipse_436" data-name="Ellipse 436" transform="translate(350 3231)" fill="#ecf9ff" stroke="#000" stroke-width="2">
          <circle cx="3.5" cy="3.5" r="3.5" stroke="none"/>
          <circle cx="3.5" cy="3.5" r="2.5" fill="none"/>
        </g>
        <g id="Group_1281" data-name="Group 1281">
          <g id="Group_1280" data-name="Group 1280" transform="translate(-54 20)">
            <g id="Union_13-2" data-name="Union 13" transform="translate(2390 3215)" fill="#ecf9ff">
              <path d="M -1950.471069335938 46.99970245361328 C -1954.509887695312 46.99970245361328 -1958.283203125 45.03383255004883 -1960.564697265625 41.74100112915039 L -1961.22265625 40.7913703918457 L -1962.068237304688 41.57868194580078 C -1963.654663085938 43.05594253540039 -1965.730712890625 43.86950302124023 -1967.913940429688 43.86950302124023 C -1970.764282226562 43.86950302124023 -1973.412963867188 42.47306060791016 -1974.9990234375 40.13402938842773 L -1975.296508789062 39.69525146484375 L -1975.82666015625 39.69525146484375 L -1975.839477539062 39.69528961181641 C -1978.825561523438 39.6953010559082 -1981.629028320312 38.54954147338867 -1983.73681640625 36.46908950805664 C -1985.841186523438 34.39205169677734 -1987.000122070312 31.63137054443359 -1987.000122070312 28.69560050964355 C -1987.000122070312 26.95301055908203 -1986.599243164062 25.2869815826416 -1985.808715820312 23.74380111694336 C -1985.053588867188 22.26980209350586 -1983.948852539062 20.95879173278809 -1982.614135742188 19.95250129699707 L -1982.3369140625 19.74343109130859 L -1982.248901367188 19.4074821472168 C -1981.3544921875 15.99444103240967 -1979.304443359375 12.9081916809082 -1976.476318359375 10.71725082397461 C -1975.059448242188 9.619561195373535 -1973.483154296875 8.765101432800293 -1971.79150390625 8.177591323852539 C -1970.040771484375 7.569581031799316 -1968.20263671875 7.261301040649414 -1966.328125 7.261301040649414 C -1964.041015625 7.261301040649414 -1961.827880859375 7.715371131896973 -1959.750366210938 8.610891342163086 L -1958.851196289062 8.998480796813965 L -1958.444702148438 8.107650756835938 C -1957.492309570312 6.020141124725342 -1955.961669921875 4.248301029205322 -1954.018432617188 2.983701229095459 C -1952.024169921875 1.685951232910156 -1949.701049804688 1.000001192092896 -1947.30029296875 1.000001192092896 C -1944.035278320312 1.000001192092896 -1940.96630859375 2.254421234130859 -1938.65869140625 4.532191276550293 C -1936.354614257812 6.806501388549805 -1935.085693359375 9.82927131652832 -1935.085693359375 13.043701171875 C -1935.085693359375 13.55652141571045 -1935.11865234375 14.07259082794189 -1935.183715820312 14.577561378479 L -1935.31103515625 15.56672096252441 L -1934.322265625 15.69675159454346 C -1931.917236328125 16.01302146911621 -1929.704223632812 17.18115043640137 -1928.090942382812 18.9859504699707 C -1926.466430664062 20.80342102050781 -1925.57177734375 23.14005088806152 -1925.57177734375 25.56540107727051 C -1925.57177734375 26.78064155578613 -1925.791015625 27.96721076965332 -1926.223510742188 29.0921516418457 L -1926.38671875 29.51692199707031 L -1926.173706054688 29.91905212402344 C -1925.774291992188 30.67307090759277 -1925.57177734375 31.49022102355957 -1925.57177734375 32.34780120849609 C -1925.57177734375 35.2488899230957 -1927.96826171875 37.60910034179688 -1930.9140625 37.60910034179688 C -1932.434326171875 37.60910034179688 -1933.887451171875 36.96800231933594 -1934.901000976562 35.85019302368164 L -1935.199584960938 35.52099990844727 L -1935.643920898438 35.52191162109375 L -1935.658325195312 35.5219612121582 L -1935.67138671875 35.52199935913086 C -1936.180053710938 35.52199935913086 -1936.691040039062 35.48440170288086 -1937.190185546875 35.41025161743164 L -1938.216064453125 35.25784301757812 L -1938.3310546875 36.28861236572266 C -1938.657104492188 39.21438980102539 -1940.063232421875 41.91726303100586 -1942.290161132812 43.89932250976562 C -1944.536499023438 45.89863204956055 -1947.44189453125 46.99970245361328 -1950.471069335938 46.99970245361328 Z" stroke="none"/>
              <path d="M -1950.471069335938 45.99970245361328 C -1947.687255859375 45.99970245361328 -1945.01806640625 44.98847961425781 -1942.954956054688 43.1523323059082 C -1940.912841796875 41.33471298217773 -1939.62353515625 38.85779190063477 -1939.324829101562 36.17782974243164 L -1939.095092773438 34.11627960205078 L -1937.043212890625 34.42110061645508 C -1936.592651367188 34.48805236816406 -1936.130981445312 34.52199935913086 -1935.67138671875 34.52199935913086 L -1935.662353515625 34.52197265625 L -1935.64599609375 34.52191162109375 L -1934.757202148438 34.52009201049805 L -1934.160278320312 35.17848205566406 C -1933.335815429688 36.08766174316406 -1932.152709960938 36.60910034179688 -1930.9140625 36.60910034179688 C -1928.519775390625 36.60910034179688 -1926.57177734375 34.69749069213867 -1926.57177734375 32.34780120849609 C -1926.57177734375 31.65511131286621 -1926.735107421875 30.99545097351074 -1927.057373046875 30.38714027404785 L -1927.4833984375 29.58288192749023 L -1927.156860351562 28.73336029052734 C -1926.768676757812 27.72335052490234 -1926.57177734375 26.65750122070312 -1926.57177734375 25.56540107727051 C -1926.57177734375 23.3862419128418 -1927.376098632812 21.28629112243652 -1928.836547851562 19.65238189697266 C -1930.290283203125 18.02598190307617 -1932.284790039062 16.97329139709473 -1934.45263671875 16.6882209777832 L -1936.430297851562 16.42816162109375 L -1936.175537109375 14.44983100891113 C -1936.115966796875 13.98706150054932 -1936.085693359375 13.51397132873535 -1936.085693359375 13.043701171875 C -1936.085693359375 10.09884166717529 -1937.248901367188 7.328821182250977 -1939.361206054688 5.243881225585938 C -1941.48046875 3.152031183242798 -1944.299926757812 2.000001192092896 -1947.30029296875 2.000001192092896 C -1949.506958007812 2.000001192092896 -1951.641479492188 2.629991292953491 -1953.472900390625 3.821851253509521 C -1955.2568359375 4.982721328735352 -1956.661499023438 6.608261108398438 -1957.534912109375 8.522741317749023 L -1958.347778320312 10.30438137054443 L -1960.146118164062 9.529221534729004 C -1962.098022460938 8.687891006469727 -1964.177978515625 8.261301040649414 -1966.328125 8.261301040649414 C -1969.824951171875 8.261301040649414 -1973.122314453125 9.38392162322998 -1975.863891601562 11.50779151916504 C -1978.518798828125 13.56446075439453 -1980.442749023438 16.45997047424316 -1981.281494140625 19.66094207763672 L -1981.45751953125 20.33284187316895 L -1982.01220703125 20.75099182128906 C -1983.226928710938 21.66686058044434 -1984.232055664062 22.85943031311035 -1984.918701171875 24.19976043701172 C -1985.63623046875 25.60047149658203 -1986.000122070312 27.11309051513672 -1986.000122070312 28.69560050964355 C -1986.000122070312 34.20944976806641 -1981.443603515625 38.6953010559082 -1975.843994140625 38.6953010559082 L -1975.82666015625 38.69525146484375 L -1974.766357421875 38.69525146484375 L -1974.17138671875 39.57279968261719 C -1972.771606445312 41.63709259033203 -1970.432373046875 42.86950302124023 -1967.913940429688 42.86950302124023 C -1965.984375 42.86950302124023 -1964.150390625 42.15117263793945 -1962.749633789062 40.84685134887695 L -1961.058715820312 39.27222061157227 L -1959.742797851562 41.17148208618164 C -1957.648071289062 44.19475936889648 -1954.182006835938 45.99970245361328 -1950.471069335938 45.99970245361328 M -1950.471069335938 47.99970245361328 C -1955.005615234375 47.99970245361328 -1959.006591796875 45.74570083618164 -1961.38671875 42.31052017211914 C -1963.09033203125 43.89691162109375 -1965.38720703125 44.86950302124023 -1967.913940429688 44.86950302124023 C -1971.213134765625 44.86950302124023 -1974.119873046875 43.21234130859375 -1975.82666015625 40.69525146484375 C -1975.83203125 40.69525146484375 -1975.837646484375 40.6953010559082 -1975.842895507812 40.6953010559082 C -1982.557006835938 40.6953010559082 -1988.000122070312 35.32320022583008 -1988.000122070312 28.69560050964355 C -1988.000122070312 24.80455207824707 -1986.124267578125 21.34651184082031 -1983.216186523438 19.15401077270508 C -1981.273071289062 11.73817157745361 -1974.448852539062 6.261301040649414 -1966.328125 6.261301040649414 C -1963.848876953125 6.261301040649414 -1961.490234375 6.771981239318848 -1959.3544921875 7.69257116317749 C -1957.285278320312 3.157251119613647 -1952.666625976562 1.226806602971919e-06 -1947.30029296875 1.226806602971919e-06 C -1940.002197265625 1.226806602971919e-06 -1934.085693359375 5.84010124206543 -1934.085693359375 13.043701171875 C -1934.085693359375 13.60648155212402 -1934.121826171875 14.16129112243652 -1934.19189453125 14.70529079437256 C -1928.761474609375 15.41939163208008 -1924.57177734375 20.00911140441895 -1924.57177734375 25.56540107727051 C -1924.57177734375 26.93368148803711 -1924.825805664062 28.24325180053711 -1925.2900390625 29.45095062255859 C -1924.831176757812 30.31719207763672 -1924.57177734375 31.30248069763184 -1924.57177734375 32.34780120849609 C -1924.57177734375 35.80560302734375 -1927.411254882812 38.60910034179688 -1930.9140625 38.60910034179688 C -1932.79248046875 38.60910034179688 -1934.480346679688 37.80287933349609 -1935.641845703125 36.52191162109375 C -1935.651611328125 36.52193069458008 -1935.661743164062 36.52199935913086 -1935.67138671875 36.52199935913086 C -1936.237548828125 36.52199935913086 -1936.793823242188 36.48011016845703 -1937.337158203125 36.39939117431641 C -1938.064453125 42.92407989501953 -1943.6669921875 47.99970245361328 -1950.471069335938 47.99970245361328 Z" stroke="none"/>
            </g>
            <g id="Group_1279" data-name="Group 1279" transform="translate(425.944 3202.26) rotate(8)">
              <g id="Rectangle_1-2" data-name="Rectangle 1" transform="translate(0 4.358)" fill="#fff" stroke="#000" stroke-width="2">
                <rect width="27.296" height="6.465" rx="3.232" stroke="none"/>
                <rect x="1" y="1" width="25.296" height="4.465" rx="2.232" fill="none"/>
              </g>
              <g id="Path_58-2" data-name="Path 58" transform="translate(3.004 9.387)" fill="#fff">
                <path d="M 17.71487998962402 32.04259872436523 L 3.625295162200928 32.04259872436523 L 1.085169315338135 0.9999974370002747 L 19.63659858703613 0.9999974370002747 L 17.71487998962402 32.04259872436523 Z" stroke="none"/>
                <path d="M 2.170339584350586 1.999998092651367 L 4.546802520751953 31.0425968170166 L 16.77486991882324 31.0425968170166 L 18.57277679443359 1.999998092651367 L 2.170339584350586 1.999998092651367 M 0 -3.814697265625e-06 L 20.70041847229004 -3.814697265625e-06 L 18.6548900604248 33.04259872436523 L 2.703769683837891 33.04259872436523 L 0 -3.814697265625e-06 Z" stroke="none"/>
              </g>
              <g id="Path_59-2" data-name="Path 59" transform="translate(3.878 20.071)" fill="#8ec48a">
                <path d="M 1.911804795265198 11.10226345062256 L 1.085173964500427 0.9999998807907104 L 18.13446617126465 0.9999998807907104 L 17.48511505126953 10.99391460418701 L 1.911804795265198 11.10226345062256 Z" stroke="none"/>
                <path d="M 2.17033576965332 2 L 2.832794189453125 10.09583759307861 L 16.54756355285645 10.0004186630249 L 17.06738090515137 2 L 2.17033576965332 2 M -5.7220458984375e-06 0 L 19.20154571533203 0 L 18.42267417907715 11.98742008209229 L 0.990814208984375 12.10869979858398 L -5.7220458984375e-06 0 Z" stroke="none"/>
              </g>
              <path id="Path_60-2" data-name="Path 60" d="M0,4.8V0H2.358l11.62,4.8Z" transform="translate(4.218 0)" fill="#fff" stroke="#000" stroke-linecap="round" stroke-width="2"/>
            </g>
            <path id="Path_5493-2" data-name="Path 5493" d="M7.5,0a7.274,7.274,0,0,1,5.039,2.087,6.94,6.94,0,0,1,2.087,5.039A7.126,7.126,0,0,1,7.5,14.252" transform="matrix(0.719, -0.695, 0.695, 0.719, 412.587, 3241.436)" fill="#ecf9ff" stroke="#000" stroke-linecap="round" stroke-width="2"/>
            <path id="Path_5494-2" data-name="Path 5494" d="M7.5,0A3.349,3.349,0,0,1,9.82.961a3.2,3.2,0,0,1,.961,2.32A3.28,3.28,0,0,1,7.5,6.561" transform="translate(454.855 3248.021) rotate(-120)" fill="#ecf9ff" stroke="#000" stroke-linecap="round" stroke-width="2"/>
          </g>
          <g id="Union_14" data-name="Union 14" transform="translate(2343 3228)" fill="#ecf9ff">
            <path d="M -1986.499877929688 11.99960041046143 C -1987.87841796875 11.99960041046143 -1989 10.87845993041992 -1989 9.500400543212891 C -1989 8.812560081481934 -1988.726318359375 8.171440124511719 -1988.2294921875 7.695140361785889 L -1987.849975585938 7.331270217895508 L -1987.9345703125 6.812310218811035 C -1987.97802734375 6.545960426330566 -1988 6.272760391235352 -1988 6.000300407409668 C -1988 3.243130207061768 -1985.7568359375 1.000000238418579 -1982.999755859375 1.000000238418579 C -1981.579345703125 1.000000238418579 -1980.221069335938 1.607540249824524 -1979.273193359375 2.66683030128479 L -1978.971557617188 3.003790140151978 L -1978.519409179688 2.999940156936646 L -1978.519287109375 2.999940156936646 L -1978.514404296875 2.999900102615356 L -1978.499755859375 2.999800205230713 C -1977.121215820312 2.999800205230713 -1975.999633789062 4.121340274810791 -1975.999633789062 5.499900341033936 C -1975.999633789062 6.669569969177246 -1976.827880859375 7.697319984436035 -1977.968994140625 7.943680286407471 L -1978.410766601562 8.039050102233887 L -1978.631103515625 8.433660507202148 C -1979.514770507812 10.01644992828369 -1981.188842773438 10.99970054626465 -1982.999755859375 10.99970054626465 C -1983.272094726562 10.99970054626465 -1983.545288085938 10.97768020629883 -1983.811767578125 10.93424034118652 L -1984.330688476562 10.84967041015625 L -1984.694580078125 11.22920036315918 C -1985.170776367188 11.72599983215332 -1985.811889648438 11.99960041046143 -1986.499877929688 11.99960041046143 Z" stroke="none"/>
            <path d="M -1986.499877929688 10.99960041046143 C -1986.087036132812 10.99960041046143 -1985.702270507812 10.83538055419922 -1985.416381835938 10.53717994689941 L -1984.688720703125 9.778110504150391 L -1983.65087890625 9.947270393371582 C -1983.4375 9.982060432434082 -1983.218383789062 9.999700546264648 -1982.999755859375 9.999700546264648 C -1981.550903320312 9.999700546264648 -1980.21142578125 9.212830543518066 -1979.504150390625 7.946160316467285 L -1979.0634765625 7.156949996948242 L -1978.180053710938 6.966200351715088 C -1977.49609375 6.818540096282959 -1976.999633789062 6.201870441436768 -1976.999633789062 5.499900341033936 C -1976.999633789062 4.67273998260498 -1977.672607421875 3.999800205230713 -1978.497680664062 3.999800205230713 L -1978.505493164062 3.999860286712646 L -1978.510620117188 3.999900102615356 L -1978.510986328125 3.999910116195679 L -1979.415283203125 4.0076003074646 L -1980.018310546875 3.333680152893066 C -1980.77685546875 2.486110210418701 -1981.863525390625 2.000000238418579 -1982.999755859375 2.000000238418579 C -1985.205444335938 2.000000238418579 -1987 3.794530153274536 -1987 6.000300407409668 C -1987 6.219020366668701 -1986.982299804688 6.438070297241211 -1986.947631835938 6.651370048522949 L -1986.7783203125 7.689280033111572 L -1987.537475585938 8.417019844055176 C -1987.835693359375 8.702939987182617 -1988 9.087690353393555 -1988 9.500400543212891 C -1988 10.32705974578857 -1987.327026367188 10.99960041046143 -1986.499877929688 10.99960041046143 M -1986.499877929688 12.99960041046143 C -1988.43310546875 12.99960041046143 -1990 11.43270015716553 -1990 9.500400543212891 C -1990 8.507019996643066 -1989.586059570312 7.610300064086914 -1988.921508789062 6.973250389099121 C -1988.97314453125 6.656570434570312 -1989 6.331600189208984 -1989 6.000300407409668 C -1989 2.686500310897827 -1986.313598632812 2.052307195299363e-07 -1982.999755859375 2.052307195299363e-07 C -1981.22265625 2.052307195299363e-07 -1979.62646484375 0.7724202275276184 -1978.527954101562 1.999980211257935 C -1978.5185546875 1.999900221824646 -1978.509155273438 1.999800205230713 -1978.499755859375 1.999800205230713 C -1976.567504882812 1.999800205230713 -1974.999633789062 3.566700220108032 -1974.999633789062 5.499900341033936 C -1974.999633789062 7.178470134735107 -1976.181640625 8.580850601196289 -1977.757934570312 8.921159744262695 C -1978.783447265625 10.75786018371582 -1980.746337890625 11.99970054626465 -1982.999755859375 11.99970054626465 C -1983.3310546875 11.99970054626465 -1983.655883789062 11.97284984588623 -1983.97265625 11.92121982574463 C -1984.609741210938 12.58580017089844 -1985.50634765625 12.99960041046143 -1986.499877929688 12.99960041046143 Z" stroke="none"/>
          </g>
        </g>
      </g>
      <g id="Group_1284" data-name="Group 1284" transform="translate(-173 -6)">
        <g transform="matrix(1, 0, 0, 1, 473, 3110)" filter="url(#Rectangle_75)">
          <path id="Rectangle_75-2" data-name="Rectangle 75" d="M4,0H115a4,4,0,0,1,4,4V106a7,7,0,0,1-7,7H7a7,7,0,0,1-7-7V4A4,4,0,0,1,4,0Z" transform="translate(104 70)" fill="#fff"/>
        </g>
        <path id="Rectangle_76" data-name="Rectangle 76" d="M4,0H115a4,4,0,0,1,4,4V41a0,0,0,0,1,0,0H0a0,0,0,0,1,0,0V4A4,4,0,0,1,4,0Z" transform="translate(577 3180)" fill="#ff9e6b"/>
        <text id="Start_project" data-name="Start project" transform="translate(595 3205)" fill="#fff" font-size="14" font-family="Inter-Medium, Inter" font-weight="500"><tspan x="0" y="0">Start project</tspan></text>
        <path id="Path_5495" data-name="Path 5495" d="M16.516-32V0H9.75V-25.578H9.563L2.234-20.984v-6L10.156-32ZM25.391,0,38.656-26.25v-.219H23.2V-32H45.656v5.609L32.375,0Z" transform="translate(613 3263)"/>
        <rect id="Rectangle_77" data-name="Rectangle 77" width="51" height="10" rx="5" transform="translate(611 3271)" fill="#ffcfcf"/>
      </g>
      <text id="Give_review" data-name="Give review" transform="translate(693 3192)" font-size="13" font-family="Inter-SemiBold, Inter" font-weight="600"><tspan x="0" y="0">Give review</tspan></text>
      <g id="Group_1286" data-name="Group 1286" transform="translate(692.704 3200.412)">
        <g transform="matrix(1, 0, 0, 1, -392.7, -96.41)" filter="url(#Rectangle_79)">
          <rect id="Rectangle_79-2" data-name="Rectangle 79" width="171" height="83" rx="4" transform="translate(393 96)" fill="#fff"/>
        </g>
        <rect id="Rectangle_78" data-name="Rectangle 78" width="153" height="35" rx="2" transform="translate(9.296 39.588)" fill="#f2f2f2"/>
        <text id="write_review.." data-name="write review.." transform="translate(13.296 50.588)" fill="#d5d5d5" font-size="9" font-family="Inter-Regular, Inter"><tspan x="0" y="0">write review..</tspan></text>
        <g id="star" transform="translate(43.951 12.397)">
          <g id="Group_1285" data-name="Group 1285" transform="translate(0 0)">
            <path id="Path_5497" data-name="Path 5497" d="M13.71,16.769a.4.4,0,0,0-.325-.274l-4.256-.618-1.9-3.857a.4.4,0,0,0-.721,0L4.6,15.877.344,16.5a.4.4,0,0,0-.223.686l3.08,3-.727,4.239a.4.4,0,0,0,.584.424l3.807-2,3.807,2a.4.4,0,0,0,.584-.424l-.727-4.239,3.08-3A.4.4,0,0,0,13.71,16.769Z" transform="translate(0 -11.796)" fill="#f5e556"/>
          </g>
        </g>
        <g id="star-2" data-name="star" transform="translate(60.855 12.397)">
          <g id="Group_1285-2" data-name="Group 1285" transform="translate(0 0)">
            <path id="Path_5497-2" data-name="Path 5497" d="M13.71,16.769a.4.4,0,0,0-.325-.274l-4.256-.618-1.9-3.857a.4.4,0,0,0-.721,0L4.6,15.877.344,16.5a.4.4,0,0,0-.223.686l3.08,3-.727,4.239a.4.4,0,0,0,.584.424l3.807-2,3.807,2a.4.4,0,0,0,.584-.424l-.727-4.239,3.08-3A.4.4,0,0,0,13.71,16.769Z" transform="translate(0 -11.796)" fill="#f5e556"/>
          </g>
        </g>
        <g id="star-3" data-name="star" transform="translate(77.759 12.397)">
          <g id="Group_1285-3" data-name="Group 1285" transform="translate(0 0)">
            <path id="Path_5497-3" data-name="Path 5497" d="M13.71,16.769a.4.4,0,0,0-.325-.274l-4.256-.618-1.9-3.857a.4.4,0,0,0-.721,0L4.6,15.877.344,16.5a.4.4,0,0,0-.223.686l3.08,3-.727,4.239a.4.4,0,0,0,.584.424l3.807-2,3.807,2a.4.4,0,0,0,.584-.424l-.727-4.239,3.08-3A.4.4,0,0,0,13.71,16.769Z" transform="translate(0 -11.796)" fill="#f5e556"/>
          </g>
        </g>
        <g id="star-4" data-name="star" transform="translate(94.664 12.397)">
          <g id="Group_1285-4" data-name="Group 1285" transform="translate(0 0)">
            <path id="Path_5497-4" data-name="Path 5497" d="M13.71,16.769a.4.4,0,0,0-.325-.274l-4.256-.618-1.9-3.857a.4.4,0,0,0-.721,0L4.6,15.877.344,16.5a.4.4,0,0,0-.223.686l3.08,3-.727,4.239a.4.4,0,0,0,.584.424l3.807-2,3.807,2a.4.4,0,0,0,.584-.424l-.727-4.239,3.08-3A.4.4,0,0,0,13.71,16.769Z" transform="translate(0 -11.796)" fill="#f5e556"/>
          </g>
        </g>
        <g id="star-5" data-name="star" transform="translate(111.568 12.397)">
          <g id="Group_1285-5" data-name="Group 1285" transform="translate(0 0)">
            <path id="Path_5497-5" data-name="Path 5497" d="M13.71,16.769a.4.4,0,0,0-.325-.274l-4.256-.618-1.9-3.857a.4.4,0,0,0-.721,0L4.6,15.877.344,16.5a.4.4,0,0,0-.223.686l3.08,3-.727,4.239a.4.4,0,0,0,.584.424l3.807-2,3.807,2a.4.4,0,0,0,.584-.424l-.727-4.239,3.08-3A.4.4,0,0,0,13.71,16.769Z" transform="translate(0 -11.796)" fill="#f2f2f2"/>
          </g>
        </g>
      </g>
    </g>
  </g>
</svg>
