<svg xmlns="http://www.w3.org/2000/svg" xmlns:xlink="http://www.w3.org/1999/xlink" width="1836.022" height="428.002" viewBox="0 0 1836.022 428.002">
  <defs>
    <clipPath id="clip-path">
      <rect width="25.506" height="228.189" fill="none"/>
    </clipPath>
  </defs>
  <g id="Group_1291" data-name="Group 1291" transform="translate(-41.842 -30.998)">
    <g id="Component_4_1" data-name="Component 4 – 1" transform="translate(1345 32)">
      <g id="Head" transform="translate(99.837 29)">
        <path id="Head-2" data-name="Head" d="M0,73,8.262,34.49C3.655,29.081.536,22.452,1.057,15.026c1.5-21.4,31.292-16.692,37.086-5.891,2.226,4.147,3.869,10.208,4.176,17.151.078,1.756,6.617,7.523,3.842,8.483a6.723,6.723,0,0,1-3.136.3c-.793-.09-1.23-.179-1.283.4-.626,6.926-2.618,12.929-5.981,13.8-2.987.77-9.349-1.116-15.825-5.019L24,73Z" fill="#edc1ae" stroke="#000" stroke-width="2"/>
      </g>
      <path id="Leg" d="M0,0,36.631,126.227,53.86,221H71.153L53.891,0Z" transform="translate(92.837 186)" fill="#edc1ae" stroke="#000" stroke-width="2"/>
      <path id="Leg-2" data-name="Leg" d="M24.974,0c2.556,65.574,1.548,101.34.976,107.3S22.13,153.156,0,223H17.986c29.308-67,39.539-106.9,42.9-115.7S74.176,62.734,88.67,0Z" transform="translate(51.401 186)" fill="#edc1ae" stroke="#000" stroke-width="2"/>
      <path id="Union_3" data-name="Union 3" d="M4.944,195.867C25.039,117.023,26.582,65.574,24.08,0h70.7c13.762,45.921,17.626,96.536,15.758,194.282l-21,.792c-8.748-35.555-16.558-65.7-23.405-91.781-10.282,30.94-22.32,59.093-37.214,92.574Z" transform="translate(52.168 186)" fill="#ee7f6c" stroke="#000" stroke-width="2"/>
      <path id="Shoe" d="M0,18,.939,2.856a1,1,0,0,1,.907-.934L22.826,0l35.98,13.357a2,2,0,0,1,1.228,2.421L58.553,21H1.985Z" transform="translate(47.837 404)" fill="#faf7f3" stroke="#000" stroke-width="2"/>
      <path id="Shoe-2" data-name="Shoe" d="M0,18,.939,2.856a1,1,0,0,1,.907-.934L22.826,0l35.98,13.357a2,2,0,0,1,1.228,2.421L58.553,21H1.985Z" transform="translate(142.837 401)" fill="#faf7f3" stroke="#000" stroke-width="2"/>
      <path id="Skin" d="M1.227,127.994c-1.116-.688-2.338-3.28.615-5.3C9.2,117.644,19.8,108.814,21.236,105.908c2.93-5.945,28.571-82.459,28.571-82.459l21.9.083s-36.017,81.05-37.56,84.874c-2.314,5.734,2.583,14.468,4.676,19.161-3.3,1.477-4.834-.409-6.512-2.293-1.789-2.011-3.745-4.02-8.184-1.954-5.68,2.643-10.377,6.838-15.975,6.837A12.99,12.99,0,0,1,1.227,127.994ZM173.837,14.311,213.32,8.925A86.089,86.089,0,0,1,235.118,0c1.867-.054,4.837.625.412,4.313s-8.913,7.768-8.124,9.736,4.9,1.236,5.585,4.263q.682,3.027-20.032.984L180.921,32Z" transform="translate(0 128)" fill="#edc1ae" stroke="#000" stroke-width="2"/>
      <path id="Union_5" data-name="Union 5" d="M0,147Q17.855,52,75.374,0h1.7l.014.016,25.977,5.949q0,1.7.027,3.362c5.136,36.346,28.268,58.916,78.316,50.976L188.25,109.5c-25.557,3.3-49.45-.583-67.53-12.764,1.409,5.034,2.73,10.1,3.879,15.265H54.442q-.509,5.85-.887,11.813a.028.028,0,0,1,0,.009q-.016.265-.033.527c0,.006,0,.022,0,.028l-.032.521s0,.014,0,.017l-.03.489c0,.022,0,.039,0,.061l-.027.446c0,.044-.005.093-.008.137l-.024.4c0,.057-.006.12-.01.176-.008.128-.015.257-.023.384,0,.066-.007.13-.012.2,0,.088-.01.177-.015.266-.005.1-.012.211-.017.315,0,.073-.009.146-.013.219-.007.123-.014.247-.021.371,0,.059-.006.118-.01.176-.008.146-.016.3-.024.444,0,.043,0,.087-.007.13-.005.1-.011.194-.015.289,0,.01,0,.02,0,.029-.011.2-.021.388-.031.585v0q-.391,7.444-.609,15.056c0,.017,0,.034,0,.052,0,.117-.006.227-.01.344l-.008.283c0,.075,0,.15-.006.225l-.011.4c0,.049,0,.094,0,.142,0,.157-.008.314-.013.472Z" transform="translate(24.239 77)" fill="#fff" stroke="#000" stroke-width="2"/>
      <path id="Path_28" data-name="Path 28" d="M660.243,742.726s3.823-12.748,8.776-44.048" transform="translate(-542.163 -452)" fill="none" stroke="#000" stroke-linecap="round" stroke-width="2"/>
      <path id="Path_29" data-name="Path 29" d="M619.844,636.538s1.688-19.156,4.595-35.661a303.966,303.966,0,0,1,7.033-30.36" transform="translate(-541.163 -447)" fill="none" stroke="#000" stroke-linecap="round" stroke-width="2"/>
      <path id="Path_30" data-name="Path 30" d="M690,635.122c-8.324-31.895-12.332-28.771-18.275-64.43" transform="translate(-541.163 -447)" fill="none" stroke="#000" stroke-linecap="round" stroke-width="2"/>
      <path id="hair" d="M43.665,24.37a31.323,31.323,0,0,0-10.043-1.11,17.273,17.273,0,0,0,1.223-8.731C34.487,11.652,33.2,9.2,32.012,6.635a10.8,10.8,0,0,0-2.1-3.265,7.155,7.155,0,0,0-3.389-1.821,9.07,9.07,0,0,0-3.9,0c-.568.119-1.077.379-1.634.523s-.847-.209-1.261-.568A7.139,7.139,0,0,0,16.008.059a9.6,9.6,0,0,0-4.235.508,8.288,8.288,0,0,0-3.527,2.26A5.914,5.914,0,0,0,7.19,4.446c-.1.246-.119.392-.365.482-.227.083-.493.086-.727.165A9.145,9.145,0,0,0,.84,9.86a15.11,15.11,0,0,0-.827,6.208c.08,2.588,2.417,9.34,4.6,11.8A14.682,14.682,0,0,0,12.2,32.155a21.7,21.7,0,0,0-3.964,7.391,36.171,36.171,0,0,0-1.814,8.978,29.305,29.305,0,0,0,.451,8.852,9.593,9.593,0,0,0,4.289,6.246,20.487,20.487,0,0,0,3.3,1.551,21.734,21.734,0,0,0,3.4,1.09c2.211.457,4.758.378,6.461-1.381a12.13,12.13,0,0,0,1.736-2.206c.161-.279.258-.461.062-.733a5.245,5.245,0,0,0-.914-.831A8.618,8.618,0,0,1,22.164,55.4c-.272-2.342.357-5.366,2.635-6.388,2.811-1.262,5.907.187,8.406,1.537,1.062-3.748,3.242-7.122,6.661-8.841,3.782-1.9,8.121-2.124,12.008-3.756a7.164,7.164,0,0,0,2.79-1.774,3.608,3.608,0,0,0,.8-1.311,2.123,2.123,0,0,0-.556-1.647C53.247,30.624,46.945,25.37,43.665,24.37Z" transform="translate(82.836 0)" fill="#f2bd44" stroke="#000" stroke-width="2"/>
      <path id="Path_31" data-name="Path 31" d="M641.742,474.112a30.341,30.341,0,0,0,9.109-3.615" transform="translate(-543.163 -443.201)" fill="none" stroke="#000" stroke-linecap="round" stroke-width="2"/>
      <circle id="Ellipse_4" data-name="Ellipse 4" cx="1.5" cy="1.5" r="1.5" transform="translate(133.837 53)"/>
      <path id="Path_37" data-name="Path 37" d="M448.214,600.856a8.141,8.141,0,0,1-4.488-2.309" transform="translate(-308.163 -531)" fill="none" stroke="#000" stroke-linecap="round" stroke-width="2"/>
      <path id="Path_38" data-name="Path 38" d="M647.872,535.339c.451.18,10.46,3.336,17.132,3.787" transform="matrix(0.391, 0.921, -0.921, 0.391, 438.31, -661.935)" fill="none" stroke="#000" stroke-linecap="round" stroke-width="2"/>
      <path id="Path_39" data-name="Path 39" d="M663.925,635.338c-1.531-.556-4.318-11.807-4.833-41.423s1.743-64.938,1.743-64.938" transform="translate(-541.163 -447)" fill="none" stroke="#000" stroke-width="2"/>
      <circle id="Ellipse_5" data-name="Ellipse 5" cx="1.5" cy="1.5" r="1.5" transform="translate(111.837 151)"/>
      <circle id="Ellipse_6" data-name="Ellipse 6" cx="1.5" cy="1.5" r="1.5" transform="translate(112.837 125)"/>
      <circle id="Ellipse_7" data-name="Ellipse 7" cx="1.5" cy="1.5" r="1.5" transform="translate(111.837 174)"/>
      <path id="Path_40" data-name="Path 40" d="M657.142,497.912c3.165-.073,15.825,0,15.825,0s-2.228,9.07,3.868,8.484,5.276-9.143,5.276-9.143Z" transform="translate(-541.163 -447)" fill="none" stroke="#000" stroke-linecap="round" stroke-linejoin="round" stroke-width="2"/>
      <path id="Path_41" data-name="Path 41" d="M647.872,535.339c.451.18,10.46,3.336,17.132,3.787" transform="translate(-700.201 505.108) rotate(-60)" fill="none" stroke="#000" stroke-linecap="round" stroke-width="2"/>
      <path id="Path_44" data-name="Path 44" d="M622.72,855.789a7.045,7.045,0,0,1-3.439,2.451,7.708,7.708,0,0,1-4.058,0" transform="translate(-540.163 -447)" fill="none" stroke="#000" stroke-linecap="round" stroke-width="2"/>
      <path id="Path_45" data-name="Path 45" d="M622.72,855.789a7.045,7.045,0,0,1-3.439,2.451" transform="translate(-534.163 -444)" fill="none" stroke="#000" stroke-linecap="round" stroke-width="2"/>
      <path id="Path_46" data-name="Path 46" d="M622.72,855.789a7.045,7.045,0,0,1-3.439,2.451,7.708,7.708,0,0,1-4.058,0" transform="translate(-445.163 -450)" fill="none" stroke="#000" stroke-linecap="round" stroke-width="2"/>
      <path id="Path_47" data-name="Path 47" d="M622.72,855.789a7.045,7.045,0,0,1-3.439,2.451" transform="translate(-439.163 -447)" fill="none" stroke="#000" stroke-linecap="round" stroke-width="2"/>
      <path id="Path_48" data-name="Path 48" d="M637.133,861.24s.822,2.862-5.4,4.78c-10.55-1.016-41.992,0-41.992,0" transform="translate(-540.163 -447)" fill="none" stroke="#000" stroke-linecap="round" stroke-width="2"/>
      <path id="Path_49" data-name="Path 49" d="M637.133,861.24s.822,2.862-5.4,4.78c-10.55-1.016-41.992,0-41.992,0" transform="translate(-446.163 -450)" fill="none" stroke="#000" stroke-linecap="round" stroke-width="2"/>
    </g>
    <path id="Head-3" data-name="Head" d="M1,54.759C.506,47.744,3.449,41.483,7.8,36.374L0,0H22.646L18.811,27.161c6.11-3.687,12.114-5.468,14.932-4.741,3.484.9,6.259,5.295,6.645,12.853.018.37.817.326,1.775.282,1.468-.068,3.31-.136,3.294,1.292-.028,2.359-5.594,7.544-5.711,9.109a36.467,36.467,0,0,1-3.755,14.368c-2.683,5.007-10.819,8.628-18.578,8.628C9.363,68.951,1.719,65.052,1,54.759Z" transform="matrix(-0.966, -0.259, 0.259, -0.966, 1195.758, 151.791)" fill="#f7cddb" stroke="#000" stroke-width="2"/>
    <path id="hair-2" data-name="hair" d="M73.985,28.824a25.937,25.937,0,0,1-1.215,4.042A18.92,18.92,0,0,1,70.387,37.3a33.526,33.526,0,0,1-6.3,6.844c-4.326,3.532-9.833,5.57-15.248,4.908A15.644,15.644,0,0,1,41.19,45.94c-2.041-1.57-4-3.881-6.647-4.047-2.876-.181-5.512,2.36-7.818,3.93a21,21,0,0,1-8.406,3.559A13.969,13.969,0,0,1,4.934,44.317c-3.734-4.45-6.448-10.975-4-16.871A7.565,7.565,0,0,1,2.822,24.66c.772-.7,1.951-1.449,2.264-2.571.332-1.193-.661-2.731-1.046-3.808A11.217,11.217,0,0,1,3.2,13.445,12.472,12.472,0,0,1,7.013,6.256,12.683,12.683,0,0,1,13.6,2.873a18.453,18.453,0,0,1,4.952-.382,15.4,15.4,0,0,1,2.345.471,2.119,2.119,0,0,0,1.865-.454A15.289,15.289,0,0,1,32.62.061c2.976.248,6.405.97,8.833,3.011,2.7,2.267,2.642,5.392,2.008,8.732.672-.333,2.531-.54,1.42.789a6.014,6.014,0,0,1-1.837,1.05,6.683,6.683,0,0,0-1.836,1.414c-2.062,2.374.021,7.206,2.612,8,3.85,1.183,4.712-4.268,7.461-5.678,1.58-.811,3.233.3,4.417,1.429a17.707,17.707,0,0,1,3.6,5.567c.769,1.683,1.484,3.389,2.268,5.063.366.782,1.633,2.992,1,3.876,2.758.55,5.829-.6,8.2-2.1a5.614,5.614,0,0,0,2.254-2.406c.112-.235.356-.935.663-.963.571-.053.358.645.3.977" transform="matrix(-0.966, -0.259, 0.259, -0.966, 1237.359, 135.069)" stroke="#000" stroke-width="2"/>
    <path id="Skin-2" data-name="Skin" d="M0,29.6,32.751,47.558a81.051,81.051,0,0,0,16.1,15.084c1.615.675,4.44,1.084,1.8-3.61s-5.209-9.749-3.863-11.195,4.7.574,6.307-1.828q1.605-2.4-17.2-7.59l-23.8-21.812Z" transform="matrix(-0.985, -0.174, 0.174, -0.985, 1145.898, 194.459)" fill="#f7cddb" stroke="#000" stroke-width="2"/>
    <path id="Sleeve" d="M5.2,23.006a80.414,80.414,0,0,1,44.582,6.018l4.093-15.136C41,4.6,23.927-2,10.316.552-.41,2.561-3.851,16.479,5.2,23.006Z" transform="translate(1164.864 187.582) rotate(-161)" fill="#fdf6db" stroke="#000" stroke-width="2"/>
    <path id="Clothes" d="M59.029,136.8H35.453c-2.871,0-22.383-37.444-22.4-61.77C13.035,52.817-7.613,38.708,3.065,3.992c6.229,1.227,16.949-.272,28.471-1.77C51.557-.383,74-2.987,79.5,8.715c4.213,8.967,5.467,18.782,4.915,29.1,17.366.378,38.441,6.111,63.035,18.97.8,9.406-18.38,15.711-18.38,15.711s-34.285-.427-52.734,4.974c-5.97,20.244-13.252,40.739-14.7,59.332Z" transform="matrix(-0.985, -0.174, 0.174, -0.985, 1209.941, 273.648)" fill="#fdf6db" stroke="#000" stroke-width="2"/>
    <g id="Group_1" data-name="Group 1" transform="translate(-148 -444)">
      <path id="Path_24" data-name="Path 24" d="M1677.445,585.608c.731-3.395-13.177-67.679-7.485-85.088s19.418,45.867,19.418,45.867-2.433-21.238,0-38.167,9.04-25.779,15.4-24.775-5.668,55.2-5.668,55.2L1682.137,590.7Z" transform="translate(-1452 30)" fill="#69c889" stroke="#000" stroke-width="2"/>
      <path id="Path_23" data-name="Path 23" d="M1690.624,357.023s-16.658-37.284-16.658-51.01,12.7,14.233,12.7,14.233-13.687-47.223-12.7-56.417,16.658,19.64,16.658,19.64-32.808-86.847-23.764-81.476,19.8,31.685,19.8,31.685-20.4-82.676-12.7-101.089,27.974,53,27.974,53l10.184,139.754,10.75,38.475h-32.251Z" transform="translate(-1471 440)" fill="#a2cfad" stroke="#000" stroke-width="2"/>
      <path id="Path_22" data-name="Path 22" d="M1720.047,357.023c-1.15-6.9-18.776-85.312-17.54-151.636,1.193-64.052,20.937-116.517,38.475-96.753,17.252,19.443,15.247,79.019,12.448,134.662-2.971,59.055-7.355,113.727-7.355,113.727Z" transform="translate(-1477 449)" fill="#6ac98a" stroke="#000" stroke-width="2"/>
      <path id="Path_21" data-name="Path 21" d="M1667.993,360.418h97.318l-15.277,92.226h-69.028Z" transform="translate(-1477 441)" fill="#ee7f6c" stroke="#000" stroke-width="2"/>
      <path id="Path_25" data-name="Path 25" d="M278.55,825.272l-10.044,56.915" fill="none" stroke="#fff" stroke-linecap="round" stroke-width="2"/>
      <path id="Path_26" data-name="Path 26" d="M268.506,825.272l10.044,34.8" transform="translate(37.735 -0.94) rotate(7)" fill="none" stroke="#fff" stroke-linecap="round" stroke-width="2"/>
      <path id="Path_27" data-name="Path 27" d="M257.221,801.543c1.912-10.757-9.308-133.127-7.4-146.514" fill="none" stroke="#000" stroke-width="2"/>
      <path id="Path_42" data-name="Path 42" d="M278.55,825.272l-.7,3.259" transform="translate(2 -12)" fill="none" stroke="#fff" stroke-linecap="round" stroke-width="2"/>
    </g>
    <g id="Path_87" data-name="Path 87" transform="translate(1194 133)">
      <path d="M 17 80.5 L 13.99999904632568 80.5 C 10.39402103424072 80.5 7.003865718841553 79.09575653076172 4.454054832458496 76.54594421386719 C 1.907667279243469 73.99955749511719 0.5037730932235718 70.61493682861328 0.5000074505805969 67.01438140869141 C 0.5378652215003967 66.35984802246094 1.700199007987976 46.12247085571289 1.700199007987976 33.15765380859375 C 1.700199007987976 23.79840087890625 1.770210146903992 23.66285514831543 2.939754724502563 21.39861106872559 C 3.429299116134644 20.45086669921875 4.099732398986816 19.15288925170898 5.01979923248291 16.76948928833008 C 5.988632202148438 14.25972175598145 6.538932323455811 11.72708892822266 7.024443626403809 9.492600440979004 C 7.597243309020996 6.856355667114258 8.09193229675293 4.579622268676758 9.090554237365723 2.96881103515625 C 10.14905452728271 1.261411070823669 11.66317653656006 0.5 13.99999904632568 0.5 L 17 0.5 C 18.64408874511719 0.5 20.16641044616699 1.378277778625488 21.52467727661133 3.110433340072632 C 22.74566650390625 4.667510986328125 23.82179832458496 6.884066581726074 24.72318840026855 9.698511123657227 C 26.36248397827148 14.81693553924561 27.09757804870605 21.00457382202148 27.09972763061523 24.87430381774902 L 24.28418731689453 66.96663665771484 L 24.28307723999023 66.98329925537109 L 24.28307723999023 67 C 24.28307723999023 70.72307586669922 24.28307723999023 74.23967742919922 23.32466506958008 76.71923065185547 C 22.84328842163086 77.964599609375 22.15024375915527 78.86776733398438 21.2059326171875 79.48033142089844 C 20.14822196960449 80.16646575927734 18.7724552154541 80.5 17 80.5 Z" stroke="none"/>
      <path d="M 13.99999904632568 1 C 11.8556547164917 1 10.47259902954102 1.688453674316406 9.515522003173828 3.232254028320312 C 8.562253952026367 4.769912719726562 8.076032638549805 7.007652282714844 7.513044357299805 9.5987548828125 C 7.023675918579102 11.85096740722656 6.469020843505859 14.4036865234375 5.486244201660156 16.94953155517578 C 4.556421279907227 19.35823440551758 3.878787994384766 20.67014312744141 3.383998870849609 21.62805557250977 C 2.801887512207031 22.75503158569336 2.536199569702148 23.26939010620117 2.385187149047852 24.60401153564453 C 2.218442916870117 26.07752227783203 2.200199127197266 28.45454406738281 2.200199127197266 33.15765380859375 C 2.200199127197266 46.05336761474609 1.051925659179688 66.12875366210938 1.000030517578125 67.02846527099609 C 1.007436752319336 70.49020385742188 2.358976364135742 73.74375152587891 4.807609558105469 76.19239044189453 C 7.26298713684082 78.64776611328125 10.5275764465332 80 13.99999904632568 80 L 17 80 C 21.00668716430664 80 22.23543167114258 78.15036773681641 22.8582878112793 76.53896331787109 C 23.78307723999023 74.14640808105469 23.78307723999023 70.67510986328125 23.78307723999023 67 L 23.78307723999023 66.96659088134766 L 23.78531074523926 66.93325805664062 L 26.5997142791748 24.85790252685547 C 26.59555053710938 21.0260124206543 25.86759185791016 14.91099548339844 24.24700927734375 9.85101318359375 C 23.36377716064453 7.093254089355469 22.31547737121582 4.92919921875 21.13122177124023 3.418968200683594 C 19.87257766723633 1.813858032226562 18.48263168334961 1 17 1 L 13.99999904632568 1 M 13.99999904632568 0 L 17 0 C 24.73198699951172 0 27.5997314453125 17.15900039672852 27.5997314453125 24.89098739624023 L 24.78307723999023 67 C 24.78307723999023 74.73198699951172 24.73198699951172 81 17 81 L 13.99999904632568 81 C 6.268011093139648 81 0 74.73198699951172 0 67 C 0 67 1.200199127197266 46.40765380859375 1.200199127197266 33.15765380859375 C 1.200199127197266 19.90765380859375 1.353387832641602 24.87883377075195 4.553342819213867 16.58940887451172 C 7.753299713134766 8.300003051757812 6.268011093139648 0 13.99999904632568 0 Z" stroke="none"/>
    </g>
    <g id="Group_4" data-name="Group 4" transform="translate(430.575 113.05)">
      <path id="Arm" d="M7.954,46,38.583,20.939a85.864,85.864,0,0,0,21.2-9.836c1.3-1.319,2.826-3.933-2.829-3.2S45.314,9.156,44.429,7.261s2.43-4.392.709-6.923q-1.721-2.53-14.279,13.89L0,28.962Z" transform="translate(139.567 196.515) rotate(-177)" fill="#f7cddb" stroke="#000" stroke-width="2"/>
      <g id="Group_3" data-name="Group 3" transform="translate(112.514 197.153) rotate(155)">
        <g id="Rectangle_1" data-name="Rectangle 1" transform="translate(0 35.289)" fill="#fff" stroke="#000" stroke-width="2">
          <rect width="30.477" height="7.218" rx="3.609" stroke="none"/>
          <rect x="1" y="1" width="28.477" height="5.218" rx="2.609" fill="none"/>
        </g>
        <g id="Path_58" data-name="Path 58" transform="translate(3.354 0)" fill="#fff">
          <path d="M 22.04856109619141 35.89263916015625 L 1.085171341896057 35.89263916015625 L 3.940327644348145 0.9999995827674866 L 19.88850212097168 0.9999995827674866 L 22.04856109619141 35.89263916015625 Z" stroke="none"/>
          <path d="M 20.98473930358887 34.89263916015625 L 18.9484920501709 1.999999523162842 L 4.861844539642334 1.999999523162842 L 2.170341968536377 34.89263916015625 L 20.98473930358887 34.89263916015625 M 23.11238098144531 36.89263916015625 L 1.444396957595018e-06 36.89263916015625 L 3.018811464309692 -4.199218892608769e-07 L 20.82851219177246 -4.199218892608769e-07 L 23.11238098144531 36.89263916015625 Z" stroke="none"/>
        </g>
        <g id="Path_59" data-name="Path 59" transform="translate(4.33 11.444)" fill="#8ec48a">
          <path d="M 20.37177658081055 12.51958084106445 L 1.08517324924469 12.51958084106445 L 2.0272536277771 1.006436467170715 L 19.63168334960938 1.128915905952454 L 20.37177658081055 12.51958084106445 Z" stroke="none"/>
          <path d="M 19.30470085144043 11.51958084106445 L 18.69413185119629 2.122411489486694 L 2.948245048522949 2.01286244392395 L 2.170343637466431 11.51958084106445 L 19.30470085144043 11.51958084106445 M 21.43886375427246 13.51958084106445 L 3.784484761126805e-06 13.51958084106445 L 1.106263756752014 4.205322170491854e-07 L 20.56924438476562 0.135410413146019 L 21.43886375427246 13.51958084106445 Z" stroke="none"/>
        </g>
        <path id="Path_60" data-name="Path 60" d="M0,0V5.359H2.632L15.606,0Z" transform="translate(4.71 42.014)" fill="#fff" stroke="#000" stroke-linecap="round" stroke-width="2"/>
      </g>
      <g id="Head-4" data-name="Head" transform="translate(164.746 6.95)">
        <path id="Head-5" data-name="Head" d="M0,0,8.262,38.51C3.655,43.919.536,50.548,1.057,57.974c1.5,21.4,31.292,16.693,37.086,5.892,2.324-4.332,3.605-11.332,3.832-18.6.053-1.687,4.19-5.226,4.09-7.546-.057-1.3-1.4-1.243-2.6-1.19-.95.041-1.814.083-1.889-.539-.743-6.207-2.685-11.452-5.811-12.259-2.987-.77-9.349,1.116-15.825,5.019L24,0Z" transform="translate(46.067 73) rotate(180)" fill="#f7cddb" stroke="#000" stroke-width="2"/>
      </g>
      <path id="Hair-3" data-name="Hair" d="M38.167,46.308c3.012-13.4,11.594-22.536,10.283-28.526a10.2,10.2,0,0,0-6.986-7.45S38.528-1.543,22.529.23-3.235,8.648.982,23.268c3.876,0,8.556-1.4,15.027,1,3.08,1.143,4.406,7.09,4.406,7.09h2.924s4.257-7.057,8.4-5.187,1.881,9.087,1.881,9.087l1.44,11.049Z" transform="translate(166.228 -0.05)" fill="#191847" stroke="#000" stroke-width="2"/>
      <path id="Seat" d="M131,124H16A16,16,0,0,1,0,108V16A16,16,0,0,1,16,0H131a16,16,0,0,1,16,16v92a16,16,0,0,1-16,16ZM32,28a4.005,4.005,0,0,0-4,4V92a4.005,4.005,0,0,0,4,4h83a4,4,0,0,0,4-4V32a4,4,0,0,0-4-4Z" transform="translate(293.813 328.95) rotate(180)" fill="#ffd194" stroke="#000" stroke-width="2"/>
      <path id="LegLower" d="M10.841,117Q40.415,80.886,50.862,63.454c11.925-19.9,21.685-37.606,24.765-44.369C82.972,2.955,58.718-4.6,53.229,2.926Q40.767,20.006,0,110.417Z" transform="translate(36.813 206.95)" fill="#f7cddb" stroke="#000" stroke-width="2"/>
      <path id="LegLower-2" data-name="LegLower" d="M47.242,115,83.935,22.637C91.783,5.8,53.884-5.268,48.117,2.568,35.023,20.357,3.9,90.534,0,95.834Z" transform="translate(40.813 201.95)" fill="#4794f7" stroke="#000" stroke-width="2"/>
      <g id="Lower_Leg" data-name="Lower Leg" transform="translate(190.538 301.436) rotate(141)">
        <path id="LegLower-3" data-name="LegLower" d="M1.8,5.333C.8,17.934-1.072,61.554.8,81.745c.538,5.8,1.1,11.411,1.675,16.674,1.7,15.641,30.7,15.147,28.4.287C25.134,61.7,15.039,9.835,14.315,5.354,13.3-.927,2.437-2.586,1.8,5.333Z" transform="translate(0 0)" fill="#f7cddb" stroke="#000" stroke-width="2"/>
      </g>
      <path id="shoe-3" data-name="shoe" d="M4.474,15.967a2,2,0,0,1-2.565-1.348L0,7.894A64.242,64.242,0,0,1,.9,0H57.3s2.2,7.268-2.538,7.848S46.9,8.894,46.9,8.894L20.68,20.581a1,1,0,0,1-1.332-.532l-1.685-4.088s-4.385-2.046-7.127-2.046Z" transform="translate(192.86 305.521) rotate(150)" fill="#e4e4e4" stroke="#000" stroke-miterlimit="10" stroke-width="2"/>
      <path id="shoe-4" data-name="shoe" d="M53.339,5.033A2,2,0,0,1,55.9,6.381l1.908,6.724a64.242,64.242,0,0,1-.9,7.894H.51s-2.2-7.268,2.538-7.848,7.87-1.047,7.87-1.047L37.133.419a1,1,0,0,1,1.332.532l1.685,4.088s4.385,2.046,7.127,2.046Z" transform="translate(0 313.95)" fill="#e4e4e4" stroke="#000" stroke-miterlimit="10" stroke-width="2"/>
      <path id="Leg_and_Butt" data-name="Leg and Butt" d="M57.7,65.948S103.443,58.5,118.98,55.756C148.5,50.55,157.112,34.663,152.022,0h-54.4C86.828,3.118,7.393,38.569,7.393,38.569-2.135,43.3-.361,57.245,1.381,61.84c.107.281,48.187,82.571,48.187,82.571l44.5-28.347L57.614,69.288S56.17,66.38,57.7,65.948Z" transform="translate(80.252 163.252)" fill="#4794f7" stroke="#000" stroke-width="2"/>
      <path id="Arm-2" data-name="Arm" d="M7.954,34.617,38.583,9.556C47.1,6.772,55.012,3.778,53.291,1.247c-.724-1.064-5.951.267-12.245.642-3.209.186-5.588-4.217-8.678-.178L0,17.579Z" transform="translate(140.163 185.147) rotate(-177)" fill="#f7cddb" stroke="#000" stroke-width="2"/>
      <path id="Arm-3" data-name="Arm" d="M50.844,84.8S29.035,30.2,24.933,25C22.927,22.452,10.72,16.019,2.474,12.614-.836,11.247-.179,8.458.769,7.553,8.48.191,15.7,5.424,24.14,7.365c9.247,2.126,6.187-8.778,13.492-7.21-1.072,5.026-4.046,14.587-.591,19.715,2.3,3.419,34.226,60.51,34.226,60.51Z" transform="matrix(-0.978, -0.208, 0.208, -0.978, 288.606, 244.493)" fill="#f7cddb" stroke="#000" stroke-width="2"/>
      <path id="Coat_Back" data-name="Coat Back" d="M0,111.66l8.485,2.231C42.862,89.078,60.63,37.184,102.265,12.513L93.858,0C25.158,2.469,2.652,65.694,0,111.66Z" transform="matrix(-0.996, 0.087, -0.087, -0.996, 206.849, 174.517)" fill="#cce0fc" stroke="#000" stroke-width="2"/>
      <path id="Shirt" d="M69.6,114s-37.079-2.059-61.583-2.059c-3.5,0-8.489-3.891-7.984-6.438C5.868,76.1,19.361,45.312,19.361,3.461L41.43,0C59.684,29.358,66,65.5,69.6,114Z" transform="translate(165.211 57.95)" fill="#dde3e9" stroke="#000" stroke-width="2"/>
      <path id="Coat_Front" data-name="Coat Front" d="M.1,0C-1.664,57.079,19.948,101,38.033,127.487a11.6,11.6,0,0,0-9.932,6.1c-8.067,14.556,3.861,12.683,12.482,15.317C49.117,151.514,47.9,155.911,61.2,156h.41a10.7,10.7,0,0,0,1.64-.117l7.323-.418s27.6-92.649,14.265-126.344c0,0-28.458-4.12-43.781-4.12a46.577,46.577,0,0,0-12.385,1.334A217.453,217.453,0,0,0,16.51,0Z" transform="translate(269.914 213.95) rotate(180)" fill="#cce0fc" stroke="#000" stroke-width="2"/>
      <circle id="Ellipse_1" data-name="Ellipse 1" cx="1.5" cy="1.5" r="1.5" transform="translate(172.813 31.95)"/>
      <path id="Path_1" data-name="Path 1" d="M0,.54a8.532,8.532,0,0,0,3.28.85A5.394,5.394,0,0,0,6,0" transform="matrix(-0.978, -0.208, 0.208, -0.978, 178.324, 30.862)" fill="none" stroke="#000" stroke-linecap="round" stroke-width="2"/>
      <path id="Path_3" data-name="Path 3" d="M443.726,600.75a14.067,14.067,0,0,0,6.129-1.108" transform="translate(-272.555 -551.05)" fill="none" stroke="#000" stroke-linecap="round" stroke-width="2"/>
      <path id="Path_50" data-name="Path 50" d="M697.35,196.294c-1.238-.45-4.443-6.723-8.964-9.56-4.369-2.742-10.612-1.993-10.612-1.993" transform="translate(-465.311 -110.05)" fill="none" stroke="#000" stroke-linecap="round" stroke-width="2"/>
      <path id="Path_51" data-name="Path 51" d="M694.888,303S669.53,227.667,667.4,226.6" transform="translate(-451.473 -110.05)" fill="none" stroke="#000" stroke-linecap="round" stroke-width="2"/>
      <path id="Path_52" data-name="Path 52" d="M682.679,173.37c-.882-1.055-.4-2.892-5.092-4.768s-10.191-.267-10.191-.267" transform="translate(-451.264 -97.05)" fill="none" stroke="#000" stroke-linecap="round" stroke-width="2"/>
      <path id="Path_53" data-name="Path 53" d="M805.828,332.053s6.857,9.143,12.343,11.581" transform="translate(-715.186 -108.05)" fill="none" stroke="#000" stroke-linecap="round" stroke-width="2"/>
      <path id="Path_54" data-name="Path 54" d="M6.006,0S2.669,4.449,0,5.635" transform="translate(99.897 239.242) rotate(99)" fill="none" stroke="#000" stroke-linecap="round" stroke-width="2"/>
      <path id="Path_55" data-name="Path 55" d="M723.253,293.471s-4.294,0-9.572-.486-11.54-1.46-11.54-1.46" transform="translate(-512.581 -110.05)" fill="none" stroke="#000" stroke-linecap="round" stroke-width="2"/>
      <path id="Path_56" data-name="Path 56" d="M755.269,414.875l1.533,5.23-6.673,2.525-1.172,5.5" transform="translate(-594.947 -110.05)" fill="none" stroke="#000" stroke-linecap="round" stroke-width="2"/>
      <path id="Path_57" data-name="Path 57" d="M1.533,13.255,0,8.025,6.673,5.5,7.845,0" transform="matrix(-0.848, -0.53, 0.53, -0.848, 26.747, 329.152)" fill="none" stroke="#000" stroke-linecap="round" stroke-width="2"/>
    </g>
    <g id="Group_11" data-name="Group 11" transform="translate(23 -565)">
      <g id="Group_6" data-name="Group 6" transform="translate(1499.823 700.579)">
        <g id="Group_5" data-name="Group 5" transform="translate(19)">
          <path id="Path_61" data-name="Path 61" d="M1014.974,1343.579H940.113l-28.29,60.063H987.99Z" transform="translate(-867.797 -1343.579)" fill="#d1d1d1" stroke="#000" stroke-width="2"/>
          <g id="Rectangle_5" data-name="Rectangle 5" transform="translate(0 59.421)" fill="#d1d1d1" stroke="#000" stroke-width="2">
            <rect width="121" height="10" stroke="none"/>
            <rect x="1" y="1" width="119" height="8" fill="none"/>
          </g>
          <g id="Ellipse_8" data-name="Ellipse 8" transform="translate(103.963 39.013) rotate(-166)" fill="#4591f2" stroke="#000" stroke-width="2">
            <ellipse cx="6.5" cy="8" rx="6.5" ry="8" stroke="none"/>
            <ellipse cx="6.5" cy="8" rx="5.5" ry="7" fill="none"/>
          </g>
        </g>
      </g>
      <path id="Path_63" data-name="Path 63" d="M1227.657,617.692c-.594.792-14.264,30.508-14.264,30.508" transform="translate(367 94)" fill="none" stroke="#fff" stroke-linecap="round" stroke-width="2"/>
      <path id="Path_64" data-name="Path 64" d="M1214.405,617.692c-.042.056-1.011,2.163-1.011,2.163" transform="translate(363 131.345)" fill="none" stroke="#fff" stroke-linecap="round" stroke-width="2"/>
      <g id="Rectangle_9" data-name="Rectangle 9" transform="translate(1504 768)" fill="#fff48f" stroke="#000" stroke-width="2">
        <rect width="156" height="19" rx="7" stroke="none"/>
        <rect x="1" y="1" width="154" height="17" rx="6" fill="none"/>
      </g>
      <g id="Rectangle_10" data-name="Rectangle 10" transform="translate(1577 785)" fill="#fff" stroke="#000" stroke-width="2">
        <rect width="9" height="222" stroke="none"/>
        <rect x="1" y="1" width="7" height="220" fill="none"/>
      </g>
      <g id="Rectangle_11" data-name="Rectangle 11" transform="translate(1550 1003)" stroke="#000" stroke-linecap="round" stroke-width="2">
        <rect width="64" height="11" rx="5.5" stroke="none"/>
        <rect x="1" y="1" width="62" height="9" rx="4.5" fill="none"/>
      </g>
    </g>
    <g id="Group_10" data-name="Group 10" transform="translate(-18 -556)">
      <path id="Head-6" data-name="Head" d="M-3.943,57.974c-.688-9.8,4.961-18.209,12.007-24.261L5.143,14.5,28.25,19.567l-1.71,4.307a9.921,9.921,0,0,1,4.22-.137c3.965,1.021,6.024,9.18,6.224,17.5.024.969,4.6,1.652,4.6,1.652s-4.64,6.745-4.8,8.082a37.165,37.165,0,0,1-3.645,12.891C30.3,69.167,21.677,73,13.454,73,4.923,73-3.178,68.872-3.943,57.974Z" transform="translate(1838.816 695) rotate(180)" fill="#f2b085" stroke="#000" stroke-width="2"/>
      <path id="Hair-4" data-name="Hair" d="M13.819,50.758c-4.839-1.373-8.937-4.33-10.747-9.866-6.548-11.3-1.578-23.064,5.12-27.083,1.783,2.112,3.339,4.16,4.727,6.119a6,6,0,0,0,4.192,10.292,6.063,6.063,0,0,0,.72-.043c.149-4.142.763-18.16,2.375-23.029C22.106,1.409,33.195,0,37.062,0c3.822,0,3.122,4.14,3.122,6.341a18.4,18.4,0,0,0,2.092,6.927c1.254,1.754,1.677,4.121-.215,4.121-2.595,0-7.61-3.754-13.523-3.754-5.881,0-7.276,18.99-7.291,19.2,2.076,3.091,4.069,5.448,6.662,6.817,10.551-.167,11.786,1.725,11.786,8.1-1.7,1.22-7.717,3.273-14.451,3.851a15.965,15.965,0,0,1-4.387.6A18.276,18.276,0,0,1,13.819,50.758Z" transform="translate(1843.927 671.221) rotate(180)" fill="#a76652" stroke="#000" stroke-width="2"/>
      <path id="Union_2" data-name="Union 2" d="M116.228,221Q67.062,120.5,61.338,107.3c-1.148-2.646-3.015-7.728-5.558-15.284L45.745,127.227,19.293,221H0L28.075.266,28,0H91.7c.839,65.574,3.7,101.34,4.578,107.3s14.194,43.858,39.939,113.7Z" transform="translate(1756.816 775)" fill="#4794f7" stroke="#000" stroke-width="2"/>
      <path id="Shoe-5" data-name="Shoe" d="M61,21,60,0H39C24.064,10.5,0,17,0,17v4H38l13-2v2Z" transform="translate(1833.816 993)" fill="#191847" stroke="#000" stroke-width="2"/>
      <path id="Shoe-6" data-name="Shoe" d="M61,21,60,0H39C24.064,10.5,0,17,0,17v4H38l13-2v2Z" transform="translate(1717.816 993)" fill="#191847" stroke="#000" stroke-width="2"/>
      <path id="Skin-3" data-name="Skin" d="M56.085,71.722A92.97,92.97,0,0,1,37.6,54.452L0,33.892,9.612,22.385l31.6,21.6q21.591,5.94,19.747,8.69c-1.034,1.543-2.7,1.493-4.235,1.444-1.2-.039-2.327-.077-3.006.65-1.544,1.656,1.4,7.444,4.436,12.818,2.055,3.64,1.229,4.6-.094,4.6A5.517,5.517,0,0,1,56.085,71.722Zm27.635-32.83C78.886,38.81,75.409,25.6,75.409,25.6L58.892,16.547,59.833,0s10.7,7.708,19.9,10.269c11.735,3.267,16.483,5.761,22.217,13.054,3.068,3.9,5.672,11.748,2.751,14.3-1.974,1.727-13.431-6.779-18.124-7.744C84.249,29.4,84.137,31.9,84.313,34.4c.162,2.289.565,4.576-.274,4.576A.771.771,0,0,1,83.721,38.892Z" transform="matrix(-0.985, -0.174, 0.174, -0.985, 1776.366, 750.609)" fill="#f2b085" stroke="#000" stroke-width="2"/>
      <path id="Sleeve-2" data-name="Sleeve" d="M5.96,26.348c13.03-1.923,30.9-3.2,51.266,5.6l4.346-13.481C46.8,7.84,27.476-2.291,11.849.635-.466,2.941-4.422,18.879,5.96,26.348Z" transform="translate(1798.139 742.754) rotate(-161)" fill="#fcf6dd" stroke="#000" stroke-width="2"/>
      <path id="Clothes-2" data-name="Clothes" d="M69.991,156.509H42.923c-3.3,0-25.7-42.872-25.72-70.724-.019-25.433-5.386-19.4-11.41-64.712,7.37,1.448,17.751-.832,28.36-3.11,17.572-3.775,35.776-7.55,41.977,5.611a90.848,90.848,0,0,1,7.946,28.09q.438,3.556.632,7.145c20.844.431,47.718,8.04,80.54,25.155.923,10.769-5.066,16.987-5.066,16.987s-52.36-18.6-72.78-11.6a13.383,13.383,0,0,0-4.632,2.792c-2,14.147-5.007,28.625-7.284,43.434-1.041,6.769-1.949,13.815-2.5,20.931Z" transform="matrix(-0.985, -0.174, 0.174, -0.985, 1852.136, 841.586)" fill="#fcf6dd" stroke="#000" stroke-width="2"/>
      <circle id="Ellipse_3" data-name="Ellipse 3" cx="1.5" cy="1.5" r="1.5" transform="translate(1805.7 643.68) rotate(11)"/>
      <path id="Path_6" data-name="Path 6" d="M0,.54a4.792,4.792,0,0,0,2.833.806A7.833,7.833,0,0,0,6,0" transform="matrix(-0.921, -0.391, 0.391, -0.921, 1810.526, 642.491)" fill="none" stroke="#000" stroke-linecap="round" stroke-width="2"/>
      <path id="Path_7" data-name="Path 7" d="M447.626,587.656l-4.754,7.534,4.754,1.5" transform="translate(1354.085 57)" fill="none" stroke="#000" stroke-linecap="round" stroke-width="2"/>
      <path id="Path_9" data-name="Path 9" d="M442.921,600.32s1.174,2.4,6.243-1.441" transform="translate(1360.188 63)" fill="none" stroke="#000" stroke-linecap="round" stroke-width="2"/>
      <path id="Path_13" data-name="Path 13" d="M831.816,709.952s31.942.992,38.149-39.415" transform="translate(947 59)" fill="none" stroke="#000" stroke-linecap="round" stroke-width="2"/>
      <path id="Path_14" data-name="Path 14" d="M868.912,795.469l-4.669-15.87" transform="translate(944 73)" fill="none" stroke="#000" stroke-linecap="round" stroke-width="2"/>
      <path id="Path_15" data-name="Path 15" d="M0,1.135A19.215,19.215,0,0,0,8.6,2.828,29.706,29.706,0,0,0,18.219,0" transform="translate(1830.841 827.082) rotate(61)" fill="none" stroke="#000" stroke-linecap="round" stroke-width="2"/>
      <path id="Path_16" data-name="Path 16" d="M-3.243-.62A10.8,10.8,0,0,0,1.094-.6,19.558,19.558,0,0,0,5.916-2.56" transform="matrix(-0.017, 1, -1, -0.017, 1804.08, 840.965)" fill="none" stroke="#000" stroke-linecap="round" stroke-width="2"/>
      <path id="Path_17" data-name="Path 17" d="M721.594,693.65c.153,2.344,22.829,9.693,22.829,9.693" transform="matrix(0.951, -0.309, 0.309, 0.951, 921.534, 384.12)" fill="none" stroke="#000" stroke-linecap="round" stroke-width="2"/>
      <path id="Path_18" data-name="Path 18" d="M757.151,660.322s9.144,2.542,13.908,2.83a90.409,90.409,0,0,0,9.529,0s-.258,23.693-1.8,26.269-18.285,0-18.285,0Z" transform="translate(1032 113)" fill="none" stroke="#000" stroke-width="2"/>
      <path id="Path_20" data-name="Path 20" d="M743.346,885.676l.24,3.653.309,4.7" transform="translate(1147.213 115.231)" fill="none" stroke="#fff" stroke-linecap="round" stroke-width="2"/>
      <path id="Path_65" data-name="Path 65" d="M1476.252,643.184a23.873,23.873,0,0,1,0,5.911c-.425,2.876-1.508,4.3-1.7,5.591" transform="translate(339.331 95)" fill="none" stroke="#000" stroke-linecap="round" stroke-width="2"/>
    </g>
    <g id="Group_15" data-name="Group 15" transform="translate(23 -568)">
      <path id="Head-7" data-name="Head" d="M.057,15.025c-.688,9.8,4.961,18.209,12.007,24.261L9.142,58.5,32.25,53.433l-1.71-4.307a9.921,9.921,0,0,0,4.22.137c3.965-1.021,6.024-9.18,6.224-17.5.024-.969,4.6-1.652,4.6-1.652s-4.64-6.745-4.8-8.082A37.165,37.165,0,0,0,37.143,9.134C34.3,3.833,25.676,0,17.454,0,8.922,0,.821,4.128.057,15.025Z" transform="translate(846.319 621)" fill="#f2b085" stroke="#000" stroke-width="2"/>
      <circle id="Ellipse_9" data-name="Ellipse 9" cx="1.5" cy="1.5" r="1.5" transform="translate(885.007 647.625) rotate(169)"/>
      <path id="Path_66" data-name="Path 66" d="M0,.262A8.346,8.346,0,0,1,2.765.03,15.206,15.206,0,0,1,6,.8" transform="translate(878.276 641.704) rotate(-22)" fill="none" stroke="#000" stroke-linecap="round" stroke-width="2"/>
      <path id="Path_67" data-name="Path 67" d="M442.873,587.656l4.754,7.534-4.754,1.5" transform="translate(444.551 56)" fill="none" stroke="#000" stroke-linecap="round" stroke-width="2"/>
      <path id="Path_68" data-name="Path 68" d="M449.164,600.32s-1.174,2.4-6.243-1.441" transform="translate(436.862 61)" fill="none" stroke="#000" stroke-linecap="round" stroke-width="2"/>
      <path id="Union_7" data-name="Union 7" d="M116.227,0Q67.063,100.5,61.338,113.7c-1.149,2.649-3.021,7.744-5.559,15.282L45.745,93.774,19.293,0H0L28.075,220.735,28,221H91.7c.839-65.574,3.7-101.34,4.578-107.3S110.468,69.845,136.213,0Z" transform="translate(926.82 996) rotate(180)" stroke="#000" stroke-width="2"/>
      <path id="Shoe-7" data-name="Shoe" d="M0,21,1,0H22C36.936,10.5,61,17,61,17v4H23L10,19v2Z" transform="translate(788.82 993)" fill="#707070" stroke="#000" stroke-width="2"/>
      <path id="Shoe-8" data-name="Shoe" d="M0,21,1,0H22C36.936,10.5,61,17,61,17v4H23L10,19v2Z" transform="translate(904.82 993)" fill="#707070" stroke="#000" stroke-width="2"/>
      <path id="Arm-4" data-name="Arm" d="M7.954,0,38.583,25.061a85.864,85.864,0,0,1,21.2,9.836c1.3,1.319,2.826,3.933-2.829,3.2s-11.638-1.252-12.523.644,2.43,4.392.709,6.923q-1.721,2.53-14.279-13.89L0,17.038Z" transform="translate(897.698 757.62) rotate(-47)" fill="#f2b085" stroke="#000" stroke-width="2"/>
      <path id="Coat_Back-2" data-name="Coat Back" d="M0,4.572,10.617,0C25.978,30.388,22.993,49.242,50.443,67.918c4.647,3.161,23.974-3.324,29.915.733l.23,13.078c-2.895,6.145-22.961,14.893-29.525,13.408C32.117,96.28,16.234,78.624,4.6,57.194-.426,47.925.666,16.123,0,4.572Z" transform="matrix(0.996, 0.087, -0.087, 0.996, 866.913, 670.777)" fill="#ffd5d5" stroke="#000" stroke-width="2"/>
      <path id="Shirt-2" data-name="Shirt" d="M0,108.3s47.157,5,74.236,0c2.237-.413,2.589-4.158,1.552-6.7C59.636,62.022,48.56,27.489,48.56,0,44.115,2.241,33,.672,33,.672,13.086,29,3.933,61.5,0,108.3Z" transform="translate(828.82 671.703)" fill="#fff" stroke="#000" stroke-width="2"/>
      <path id="Coat_Front-2" data-name="Coat Front" d="M14.5,192.3l81.034,9.1C84.787,172.653,84.466,124.315,80.407,73.641c-3.02-37.695-4.261-65.824-5.09-70.7H74.066L68.281,0H64.849C44.492,47.025,17.978,119.554,14.5,192.3Z" transform="translate(790.205 670.037)" fill="#ffd5d5" stroke="#000" stroke-width="2"/>
      <path id="hair-5" data-name="hair" d="M-58.407,23.9A7.5,7.5,0,0,1-59.97,21a29.39,29.39,0,0,1-1-3.3c-.5-2.249-.509-4.836,1.1-6.582a7.548,7.548,0,0,1,5-2.165,9.187,9.187,0,0,1,3.545.449c1.129.371,2.1,1.111,3.2,1.57a14.306,14.306,0,0,1,1.687-7.03,7.008,7.008,0,0,1,5.218-3.4,10.347,10.347,0,0,1,6.357,1.28c.494.267.984.547,1.453.865a4.071,4.071,0,0,0,1.261.693c.513.121.768-.176,1.1-.55a8.368,8.368,0,0,1,1.3-1.168A7.647,7.647,0,0,1-22.6.423a6.649,6.649,0,0,1,2.917,2.109c.666.873,1.14,2.258,2.059,2.866.39.258.665-.084,1.02-.337.533-.38,1.042-.8,1.581-1.169A7.242,7.242,0,0,1-12.57,2.781c1.286-.3,3.064-.228,3.432,1.457A6.954,6.954,0,0,1-9.15,6.186c-.061.876-.125,1.751-.2,2.625a18.955,18.955,0,0,1-.256,1.957,2.863,2.863,0,0,0-.127,1.343c.186.435,1.046.188,1.413.2A5.582,5.582,0,0,1-6.2,12.78a2.286,2.286,0,0,1,1.285,1.189,2.136,2.136,0,0,1,.036,1.118,3.335,3.335,0,0,0,.068,1.147c.974-.48,4.349-1.545,4.774.2a2.731,2.731,0,0,1-.426,1.728,14.979,14.979,0,0,1-1.573,2.395,21.412,21.412,0,0,1-4.19,4.065,2.746,2.746,0,0,1,.716,4.6,3.4,3.4,0,0,1-2.5.725,5.524,5.524,0,0,0-1.033-.082,2.47,2.47,0,0,1-.468.158,13.928,13.928,0,0,1-3.832-.486,12.636,12.636,0,0,1-5.844-3.056,1.8,1.8,0,0,0-1.352-.621c-.5.005-1,.143-1.5.156a10.791,10.791,0,0,1-3.761-1.048,14.189,14.189,0,0,1-1.232,5c-.556,1.223-1.717,1.4-2.858,1.508-3.649.343-7.31-.04-10.963-.035,3.536.8,7.191,1.129,10.7,2.069,1.584.425.375,1.493-.3,2.233a12.87,12.87,0,0,0-2.52,4.32c-1.73-2.255-4.788-3.741-7.5-3.048-2.993.765-5.1,4.813-3.187,7.723,1.111,1.689,3.118,2.341,4.788,3.067-1.3,1.354-1.618,3.354-2.4,5.039a3.606,3.606,0,0,1-1.794,2.06,2.1,2.1,0,0,0-.947.377c-.313.323-.387.684-.786.961a4.434,4.434,0,0,1-5.494-.423,3.586,3.586,0,0,1,.122-4.7c-1.7-.708-4.791-1.618-4.116-4.263-3.679-.244-12.611-6.211-7.674-10.571-2.71-1.531-5.2-5.274-3.459-8.574,1.34-2.541,4.457-3.676,7.015-3.811" transform="translate(900.134 607)" fill="#61221b" stroke="#000" stroke-width="2"/>
      <path id="Path_69" data-name="Path 69" d="M657.142,497.912c3.165-.073,15.825,0,15.825,0s-2.228,9.07,3.868,8.484,5.276-9.143,5.276-9.143Z" transform="translate(204.845 145)" fill="none" stroke="#000" stroke-linecap="round" stroke-linejoin="round" stroke-width="2"/>
      <path id="Arm-5" data-name="Arm" d="M12.241,10.83C6.893,22.12,1.878,32.29.249,34.357-1.756,36.9,8.9,44.612,12.358,39.484c.9-1.33,6.4-11.181,12.92-22.949C35.194-1.369,20.634-6.883,12.241,10.83Z" transform="matrix(0.883, -0.469, 0.469, 0.883, 803.455, 802.322)" fill="#f2b085" stroke="#000" stroke-width="2"/>
      <path id="Path_71" data-name="Path 71" d="M1133.862,830.237h-30.8s-.584,18.041,5.31,24.055,12.408,6.014,18.781,0S1133.862,830.237,1133.862,830.237Z" transform="translate(-274.733 -8)" fill="#ffd5d5" stroke="#000" stroke-width="2"/>
      <g id="Path_79" data-name="Path 79" transform="translate(806 792)" fill="#ffc7a2">
        <path d="M 27.21954727172852 56.75722122192383 C 26.04343795776367 56.75722122192383 24.90091705322266 56.72100830078125 23.82371711730957 56.64958953857422 C 15.11932754516602 56.072509765625 8.173637390136719 54.32040023803711 4.808106899261475 53.32735824584961 C 2.340097188949585 52.59914016723633 0.1970271170139313 51.81356048583984 -1.389412879943848 51.05556106567383 C -3.140963554382324 50.21867370605469 -3.633965492248535 49.69196319580078 -3.753159523010254 49.53249359130859 L 0.9945771098136902 4.103940010070801 L 0.9999971389770508 4.052109718322754 L 0.9999971389770508 4 C 0.9999971389770508 2.345789909362793 2.345787048339844 0.9999999403953552 3.999997138977051 0.9999999403953552 L 48.99999618530273 0.9999999403953552 C 50.65420532226562 0.9999999403953552 51.99999618530273 2.345789909362793 51.99999618530273 4 L 51.99999618530273 4.068069934844971 L 52.00921630859375 4.135509967803955 L 58.30649185180664 50.17634201049805 C 58.07505416870117 50.38419342041016 57.32651519775391 50.92854309082031 55.17133712768555 51.7648811340332 C 53.14657592773438 52.55062103271484 50.53476715087891 53.34640884399414 47.61824798583984 54.06623840332031 C 40.68925857543945 55.77640151977539 33.25421524047852 56.75722122192383 27.21954727172852 56.75722122192383 Z" stroke="none"/>
        <path d="M 3.999996185302734 2 C 2.897197723388672 2 1.999996185302734 2.897201538085938 1.999996185302734 4 L 1.999996185302734 4.104228973388672 L 1.989166259765625 4.207889556884766 L -2.708038330078125 49.15291976928711 C -1.942977905273438 49.73559188842773 0.4627456665039062 51.05236053466797 5.702186584472656 52.54542922973633 C 11.30694580078125 54.14260101318359 17.76611709594727 55.24578857421875 23.88987731933594 55.65177917480469 C 24.94514656066895 55.72174835205078 26.06540679931641 55.75722122192383 27.21954727172852 55.75722122192383 C 35.13518524169922 55.75722122192383 42.91818618774414 54.16973114013672 46.8530158996582 53.22344207763672 C 49.67851638793945 52.54393005371094 52.25355529785156 51.78401947021484 54.29975891113281 51.02585983276367 C 55.92001724243164 50.42551803588867 56.79129791259766 49.97867965698242 57.23378372192383 49.71277236938477 L 51.01844787597656 4.271030426025391 L 50.99999618530273 4.136138916015625 L 50.99999618530273 4 C 50.99999618530273 2.897201538085938 50.10279846191406 2 48.99999618530273 2 L 3.999996185302734 2 M 3.999996185302734 0 L 48.99999618530273 0 C 51.20913696289062 0 52.99999618530273 1.790859222412109 52.99999618530273 4 L 59.33788681030273 50.3377685546875 C 59.33788681030273 52.38173675537109 41.79018020629883 57.75721740722656 27.21954917907715 57.75721740722656 C 26.04209518432617 57.75721740722656 24.88532447814941 57.72216796875 23.75756645202637 57.64739990234375 C 8.674148559570312 56.64739990234375 -4.766292572021484 51.81520843505859 -4.766292572021484 49.6060791015625 L -3.814697265625e-06 4 C -3.814697265625e-06 1.790859222412109 1.790855407714844 0 3.999996185302734 0 Z" stroke="none"/>
      </g>
      <g id="Path_80" data-name="Path 80" transform="translate(802 792)" fill="#ffc7a2">
        <path d="M 32.13075256347656 43.22900009155273 C 25.27387428283691 43.22900009155273 18.29247283935547 42.24320983886719 12.47260665893555 40.45322036743164 C 6.258306980133057 38.54193115234375 1.594095706939697 35.82331085205078 -1.015804290771484 32.59125518798828 C -3.12725567817688 29.97648239135742 -3.855548858642578 27.05550384521484 -3.180557012557983 23.90926170349121 L 1.472573518753052 4.230099201202393 L 1.499406814575195 4.116621494293213 L 1.499406814575195 3.999999046325684 C 1.499406814575195 2.34578800201416 3.047662496566772 0.9999991059303284 4.950717926025391 0.9999991059303284 L 55.02789688110352 0.9999991059303284 C 56.93095016479492 0.9999991059303284 58.47920608520508 2.34578800201416 58.47920608520508 3.999999046325684 L 58.47920608520508 4.075665950775146 L 58.49059677124023 4.150476932525635 L 61.87405014038086 26.37963104248047 C 62.32373428344727 29.61576080322266 61.47600173950195 32.4930534362793 59.35426330566406 34.93114471435547 C 58.18967437744141 36.26936721801758 56.63576126098633 37.4837760925293 54.73568344116211 38.54061126708984 C 52.89738464355469 39.56308746337891 50.73129653930664 40.44091033935547 48.2975959777832 41.14970016479492 C 43.62691879272461 42.50998687744141 38.03651809692383 43.22900009155273 32.13075256347656 43.22900009155273 Z" stroke="none"/>
        <path d="M 4.950717926025391 2 C 3.599063873291016 2 2.499408721923828 2.897197723388672 2.499408721923828 4 L 2.499408721923828 4.233230590820312 L 2.44573974609375 4.460208892822266 L -2.204875946044922 24.12873458862305 C -2.51434326171875 25.57781791687012 -2.497344970703125 26.9792652130127 -2.154293060302734 28.29449844360352 C -1.82318115234375 29.56393241882324 -1.178382873535156 30.79819869995117 -0.23779296875 31.96299934387207 C 2.246517181396484 35.03952026367188 6.743350982666016 37.64487457275391 12.76657485961914 39.49740982055664 C 18.49380493164062 41.2588996887207 25.37080764770508 42.22900009155273 32.13075256347656 42.22900009155273 C 37.94319534301758 42.22900009155273 43.43690490722656 41.52378845214844 48.01796340942383 40.1895866394043 C 52.7802619934082 38.80261993408203 56.4394416809082 36.75727844238281 58.59990692138672 34.27466583251953 C 59.54100799560547 33.19324493408203 60.21207427978516 32.01318740844727 60.59447479248047 30.76726531982422 C 60.99571990966797 29.45993614196777 61.09328842163086 28.03237342834473 60.88447189331055 26.52381134033203 L 57.50197219848633 4.300945281982422 L 57.47919464111328 4.151332855224609 L 57.47919464111328 4 C 57.47919464111328 2.897197723388672 56.37955093383789 2 55.02789688110352 2 L 4.950717926025391 2 M 4.950717926025391 0 L 55.02789688110352 0 C 57.48628616333008 0 59.47919464111328 1.790855407714844 59.47919464111328 4 L 62.86367416381836 26.23587608337402 C 64.58104705810547 38.55311584472656 48.82273864746094 44.22900009155273 32.13074493408203 44.22900009155273 C 13.16672897338867 44.22900009155273 -7.004302978515625 36.90987014770508 -4.156013488769531 23.6888542175293 L 0.4994087219238281 4 C 0.4994087219238281 1.790855407714844 2.492317199707031 0 4.950717926025391 0 Z" stroke="none"/>
      </g>
      <path id="Arm-6" data-name="Arm" d="M38.583,20.939a85.864,85.864,0,0,0,21.2-9.836c1.3-1.319,2.826-3.933-2.829-3.2S45.314,9.156,44.429,7.261s2.43-4.392.709-6.923q-1.721-2.53-14.279,13.89Z" transform="matrix(-0.454, 0.891, -0.891, -0.454, 857.548, 795.527)" fill="#f2b085" stroke="#000" stroke-width="2"/>
      <path id="Clothes_Front" data-name="Clothes Front" d="M4.276,79.88c-7.61,18.947-3.141,36.18-1.908,59.082l14.7.159c4.816-25.3,2.705-34.032,10.335-48.155,32.3-37.621,35-42.755,43.57-90.8,0,0-11.032-1.987-22.477,7.971C33.886,20.841,16.2,50.191,4.276,79.88Z" transform="translate(784.918 685.836) rotate(-13)" fill="#ffd5d5" stroke="#000" stroke-width="2"/>
      <path id="Clothes_Front-2" data-name="Clothes Front" d="M19.034,38.423C21.961,29.187,27.921.54,27.921.54L25.013,0A266.767,266.767,0,0,0,3.693,19.774C-8.674,32.546,13.526,55.81,19.034,38.423Z" transform="translate(828.7 676.767) rotate(-13)" fill="#ffd5d5"/>
      <path id="Path_72" data-name="Path 72" d="M1097.367,709.852s-1.545,9.92-2.826,14.626" transform="translate(-242.774)" fill="none" stroke="#000" stroke-linecap="round" stroke-width="2"/>
      <path id="Path_76" data-name="Path 76" d="M1132.938,717.948s-1.184,14-2.367,18.343" transform="translate(-281.375 8)" fill="none" stroke="#000" stroke-linecap="round" stroke-width="2"/>
      <path id="Path_78" data-name="Path 78" d="M57.906,67.361s16.154,4.1,10.256,52.821-5.385,63.59-5.385,63.59H42.433v3.539H65.9s-1.183-24.26,6.114-91.519c.789-19.132-11.045-29.783-11.045-29.783Z" transform="translate(789.918 605)" stroke="#000" stroke-linecap="round" stroke-width="2"/>
      <path id="Path_77" data-name="Path 77" d="M1130.571,717.948s.7,8.339,1.409,10.923" transform="translate(657.521 2075.466) rotate(-111)" fill="none" stroke="#000" stroke-linecap="round" stroke-width="2"/>
    </g>
    <g id="Group_16" data-name="Group 16" transform="translate(1011.064 155)">
      <g id="Path_86" data-name="Path 86" fill="#cebbe1">
        <path d="M 205.9359130859375 273 L 1.000020384788513 273 L 1.000020384788513 1 L 205.9359130859375 1 L 205.9359130859375 273 Z" stroke="none"/>
        <path d="M 1.999984741210938 2 L 1.999984741210938 272 L 204.9358825683594 272 L 204.9358825683594 2 L 1.999984741210938 2 M -1.52587890625e-05 0 L 206.9358825683594 0 L 206.9358825683594 274 L -1.52587890625e-05 274 L -1.52587890625e-05 0 Z" stroke="none"/>
      </g>
      <g id="Rectangle_20" data-name="Rectangle 20" transform="translate(204.936 39)" fill="#4693f5" stroke="#000" stroke-width="2">
        <rect width="28" height="235" stroke="none"/>
        <rect x="1" y="1" width="26" height="233" fill="none"/>
      </g>
    </g>
    <g id="Repeat_Grid_1" data-name="Repeat Grid 1" transform="translate(1216.753 200.579)" clip-path="url(#clip-path)">
      <g transform="translate(-1233.753 -745.579)">
        <path id="Path_85" data-name="Path 85" d="M1261,746.007l-26.988,16.333" fill="none" stroke="#000" stroke-linecap="round" stroke-width="2"/>
      </g>
      <g transform="translate(-1233.753 -723.579)">
        <path id="Path_85-2" data-name="Path 85" d="M1261,746.007l-26.988,16.333" fill="none" stroke="#000" stroke-linecap="round" stroke-width="2"/>
      </g>
      <g transform="translate(-1233.753 -701.579)">
        <path id="Path_85-3" data-name="Path 85" d="M1261,746.007l-26.988,16.333" fill="none" stroke="#000" stroke-linecap="round" stroke-width="2"/>
      </g>
      <g transform="translate(-1233.753 -679.579)">
        <path id="Path_85-4" data-name="Path 85" d="M1261,746.007l-26.988,16.333" fill="none" stroke="#000" stroke-linecap="round" stroke-width="2"/>
      </g>
      <g transform="translate(-1233.753 -657.579)">
        <path id="Path_85-5" data-name="Path 85" d="M1261,746.007l-26.988,16.333" fill="none" stroke="#000" stroke-linecap="round" stroke-width="2"/>
      </g>
      <g transform="translate(-1233.753 -635.579)">
        <path id="Path_85-6" data-name="Path 85" d="M1261,746.007l-26.988,16.333" fill="none" stroke="#000" stroke-linecap="round" stroke-width="2"/>
      </g>
      <g transform="translate(-1233.753 -613.579)">
        <path id="Path_85-7" data-name="Path 85" d="M1261,746.007l-26.988,16.333" fill="none" stroke="#000" stroke-linecap="round" stroke-width="2"/>
      </g>
      <g transform="translate(-1233.753 -591.579)">
        <path id="Path_85-8" data-name="Path 85" d="M1261,746.007l-26.988,16.333" fill="none" stroke="#000" stroke-linecap="round" stroke-width="2"/>
      </g>
      <g transform="translate(-1233.753 -569.579)">
        <path id="Path_85-9" data-name="Path 85" d="M1261,746.007l-26.988,16.333" fill="none" stroke="#000" stroke-linecap="round" stroke-width="2"/>
      </g>
      <g transform="translate(-1233.753 -547.579)">
        <path id="Path_85-10" data-name="Path 85" d="M1261,746.007l-26.988,16.333" fill="none" stroke="#000" stroke-linecap="round" stroke-width="2"/>
      </g>
      <g transform="translate(-1233.753 -525.579)">
        <path id="Path_85-11" data-name="Path 85" d="M1261,746.007l-26.988,16.333" fill="none" stroke="#000" stroke-linecap="round" stroke-width="2"/>
      </g>
    </g>
    <path id="Path_81" data-name="Path 81" d="M891.673,814.9s1.821,5.159,0,7.586-3.49,2.276-3.49,2.276" transform="translate(-18 -566)" fill="none" stroke="#000" stroke-linecap="round" stroke-width="2"/>
    <path id="Path_82" data-name="Path 82" d="M840.894,797.595a33.223,33.223,0,0,1,2.451,3.618" transform="translate(445.743 -846.997) rotate(25)" fill="none" stroke="#000" stroke-linecap="round" stroke-width="2"/>
    <circle id="Ellipse_10" data-name="Ellipse 10" cx="1.5" cy="1.5" r="1.5" transform="matrix(0.883, 0.469, -0.469, 0.883, 1172.54, 96.682)"/>
    <path id="Path_83" data-name="Path 83" d="M0,.54a8.532,8.532,0,0,0,3.28.85A5.394,5.394,0,0,0,6,0" transform="translate(1177.917 98.308) rotate(-140)" fill="none" stroke="#000" stroke-linecap="round" stroke-width="2"/>
    <path id="Path_84" data-name="Path 84" d="M1151.909,710.316s2.108,2.238,6.182-.663" transform="translate(14 -597)" fill="none" stroke="#000" stroke-linecap="round" stroke-width="2"/>
    <g id="Union_9" data-name="Union 9" transform="translate(1031 193)" fill="#fff48f">
      <path d="M 292.0003967285156 234.9998168945312 L 272.9998168945312 234.9998168945312 L 272.9998168945312 20.99969291687012 L 272.9998168945312 19.99969291687012 L 271.9998168945312 19.99969291687012 L -18.99977874755859 19.99969291687012 L -18.99977874755859 1.000025868415833 L 292.0003967285156 1.000025868415833 L 292.0003967285156 234.9998168945312 Z" stroke="none"/>
      <path d="M 291.0003967285156 233.9998168945312 L 291.0003967285156 2.000025749206543 L -17.99977874755859 2.000025749206543 L -17.99977874755859 18.99969291687012 L 271.9998168945312 18.99969291687012 L 273.9998168945312 18.99969291687012 L 273.9998168945312 20.99969291687012 L 273.9998168945312 233.9998168945312 L 291.0003967285156 233.9998168945312 M 293.0003967285156 235.9998168945312 L 271.9998168945312 235.9998168945312 L 271.9998168945312 20.99969291687012 L -19.99977874755859 20.99969291687012 L -19.99977874755859 2.58178715739632e-05 L 293.0003967285156 2.58178715739632e-05 L 293.0003967285156 235.9998168945312 Z" stroke="none"/>
    </g>
    <path id="Path_88" data-name="Path 88" d="M1189.512,732.079c2.991-3.509,7.622-13.849,10.89-21.592,1.174-2.775,2.221-5.44,2.221-5.44" transform="translate(1523.945 -1217.044) rotate(73)" fill="none" stroke="#000" stroke-linecap="round" stroke-width="2"/>
    <path id="Path_89" data-name="Path 89" d="M1145.363,714.922l2.11,1.581" transform="translate(-18 -565)" fill="none" stroke="#000" stroke-linecap="round" stroke-width="2"/>
    <g id="Rectangle_25" data-name="Rectangle 25" transform="translate(1127 406)" fill="#fff" stroke="#000" stroke-width="2">
      <rect width="197" height="23" stroke="none"/>
      <rect x="1" y="1" width="195" height="21" fill="none"/>
    </g>
    <path id="Path_90" data-name="Path 90" d="M7.5,13.61a52.505,52.505,0,0,0-3.156-7.1A53.676,53.676,0,0,0,0,0" transform="translate(1381.594 246.529) rotate(-138)" fill="none" stroke="#000" stroke-linecap="round" stroke-width="2"/>
    <path id="Path_91" data-name="Path 91" d="M1404.121,761.651c.292.1,1.515-.154,3.747-.154s5.181.154,5.181.154" transform="matrix(0.017, 1, -1, 0.017, 2238.144, -1115.061)" fill="none" stroke="#000" stroke-linecap="round" stroke-width="2"/>
    <g id="Group_14" data-name="Group 14" transform="translate(754 -589)">
      <g id="Rectangle_14" data-name="Rectangle 14" transform="translate(490 742)" fill="#fe4f4f" stroke="#000" stroke-width="2">
        <rect width="56" height="15" rx="2" stroke="none"/>
        <rect x="1" y="1" width="54" height="13" rx="1" fill="none"/>
      </g>
      <g id="Rectangle_15" data-name="Rectangle 15" transform="translate(494 755)" fill="#ff8787" stroke="#000" stroke-width="2">
        <rect width="48" height="29" stroke="none"/>
        <rect x="1" y="1" width="46" height="27" fill="none"/>
      </g>
      <g id="Rectangle_16" data-name="Rectangle 16" transform="translate(511 742)" fill="#ffc524" stroke="#000" stroke-width="2">
        <rect width="13" height="15" stroke="none"/>
        <rect x="1" y="1" width="11" height="13" fill="none"/>
      </g>
      <g id="Rectangle_17" data-name="Rectangle 17" transform="translate(512 755)" fill="#ffff8b" stroke="#000" stroke-width="2">
        <rect width="11" height="29" stroke="none"/>
        <rect x="1" y="1" width="9" height="27" fill="none"/>
      </g>
      <g id="Path_70" data-name="Path 70" transform="translate(504.649 734.244)" fill="#ffc524">
        <path d="M 12.17215061187744 7.994326114654541 C 11.20611190795898 7.994334697723389 10.85894107818604 7.815155029296875 10.78006553649902 7.764317035675049 L 10.61513042449951 7.349356174468994 L 10.13166046142578 7.21872615814209 C 9.548290252685547 7.06109619140625 8.953069686889648 6.878086090087891 8.362540245056152 6.674766063690186 C 6.501270294189453 6.033966064453125 4.779799938201904 5.222816467285156 3.515250205993652 4.390746116638184 C 2.363635540008545 3.632984161376953 1.926506280899048 3.074970722198486 1.807304501533508 2.833364009857178 C 1.967908978462219 2.754953384399414 2.377035617828369 2.616946220397949 3.265830278396606 2.616946220397949 C 4.871580123901367 2.616946220397949 7.085370063781738 3.06204628944397 9.339570045471191 3.838126182556152 C 9.975080490112305 4.056966304779053 10.57997035980225 4.190136432647705 11.11365032196045 4.307636260986328 C 11.80576992034912 4.460006237030029 12.4035005569458 4.591606140136719 12.91201019287109 4.863596439361572 L 13.38903045654297 5.118746280670166 L 13.86361980438232 4.859106063842773 C 14.33357048034668 4.602006435394287 14.9042797088623 4.475496292114258 15.565110206604 4.329006195068359 C 16.10157012939453 4.210076332092285 16.70960998535156 4.075286388397217 17.33765029907227 3.846676349639893 C 19.65682029724121 3.002656221389771 21.91361999511719 2.518576145172119 23.52932929992676 2.518576145172119 C 24.32211685180664 2.518576145172119 24.69800186157227 2.639234066009521 24.85087203979492 2.710578203201294 C 24.73622703552246 2.954049110412598 24.30925941467285 3.519688844680786 23.17078018188477 4.297676086425781 C 21.92109107971191 5.151666164398193 20.21387100219727 5.99281644821167 18.36360931396484 6.666196346282959 C 17.7425708770752 6.892266273498535 17.11688995361328 7.095336437225342 16.50387954711914 7.269796371459961 L 16.17525100708008 7.363326072692871 L 15.97925090789795 7.629316329956055 C 15.94646835327148 7.655380249023438 15.609543800354 7.895907402038574 14.43599987030029 7.895926475524902 C 14.24867057800293 7.895936012268066 14.04850006103516 7.889586448669434 13.84106063842773 7.877066135406494 L 13.74377059936523 7.871186256408691 L 13.6471700668335 7.88421630859375 C 13.10537052154541 7.957266330718994 12.60910034179688 7.994316101074219 12.17214012145996 7.994326114654541 L 12.17215061187744 7.994326114654541 Z" stroke="none"/>
        <path d="M 12.17214012145996 6.994326114654541 L 12.17212009429932 6.994326114654541 C 12.56455039978027 6.994316101074219 13.01587009429932 6.960286140441895 13.51354026794434 6.893186092376709 L 13.7067403793335 6.867136478424072 L 13.90134048461914 6.878886222839355 C 14.08878993988037 6.890196323394775 14.26865005493164 6.895936012268066 14.43599033355713 6.895926475524902 C 14.91087818145752 6.895919799804688 15.19196605682373 6.850728511810303 15.33567810058594 6.816971778869629 L 15.57289028167725 6.495046138763428 L 16.23015022277832 6.307996273040771 C 16.82023048400879 6.140056133270264 17.42292022705078 5.9444260597229 18.02161979675293 5.726486206054688 C 19.62070083618164 5.144526481628418 21.07656097412109 4.450146198272705 22.2318000793457 3.718406200408936 C 22.3013744354248 3.674336910247803 22.36833953857422 3.63105583190918 22.43293380737305 3.588491678237915 C 21.06618309020996 3.747492790222168 19.37128639221191 4.170731067657471 17.67970085144043 4.786356449127197 C 16.99004936218262 5.037396430969238 16.34799957275391 5.179726123809814 15.78153038024902 5.305306434631348 C 15.1951904296875 5.435286045074463 14.68879985809326 5.547536373138428 14.3435697555542 5.736406326293945 L 13.39439010620117 6.255686283111572 L 12.4403600692749 5.745376110076904 C 12.05362033843994 5.538526058197021 11.51838970184326 5.4206862449646 10.89864063262939 5.284246444702148 C 10.33862018585205 5.160956382751465 9.703889846801758 5.02121639251709 9.014039993286133 4.783656120300293 C 7.322439670562744 4.201268196105957 5.613870620727539 3.805988311767578 4.241903305053711 3.669599533081055 C 4.306667804718018 3.710659265518188 4.373841285705566 3.752424955368042 4.443520069122314 3.794876337051392 C 5.611510276794434 4.50645637512207 7.079250335693359 5.175346374511719 8.688079833984375 5.729236125946045 C 9.257369995117188 5.925246238708496 9.830820083618164 6.101576328277588 10.39251041412354 6.25334644317627 L 11.35943984985352 6.514606475830078 L 11.53449630737305 6.955040454864502 C 11.67737770080566 6.975930690765381 11.8847827911377 6.994330406188965 12.17214012145996 6.994326114654541 M 12.17216014862061 8.994326591491699 C 10.93245029449463 8.994336128234863 10.08743000030518 8.729085922241211 9.870820045471191 8.18410587310791 C 9.274630546569824 8.023015975952148 8.66038990020752 7.834926128387451 8.036999702453613 7.620296478271484 C 3.598200082778931 6.092096328735352 0.3645001649856567 3.794396162033081 0.8136001825332642 2.489396333694458 C 1.015446424484253 1.903638243675232 1.924553036689758 1.616942048072815 3.265833854675293 1.616942048072815 C 4.914829730987549 1.616942048072815 7.217312335968018 2.049866437911987 9.66510009765625 2.892596244812012 C 11.06033992767334 3.373056173324585 12.30341053009033 3.403996229171753 13.38366985321045 3.981816291809082 C 14.42249011993408 3.413496255874634 15.67076969146729 3.389246225357056 16.9955997467041 2.906996250152588 C 19.50685882568359 1.993066430091858 21.87121200561523 1.518571376800537 23.52933120727539 1.518571376800537 C 24.78420829772949 1.518571376800537 25.63455390930176 1.79030966758728 25.83810043334961 2.348996162414551 C 26.31060028076172 3.646796226501465 23.11739921569824 6.000296115875244 18.70560073852539 7.605896472930908 C 18.04951095581055 7.844726085662842 17.40372085571289 8.05341625213623 16.77761077880859 8.231606483459473 C 16.44919967651367 8.67729663848877 15.60758209228516 8.895906448364258 14.43602466583252 8.895930290222168 C 14.22765445709229 8.895934104919434 14.0090274810791 8.889023780822754 13.78079986572266 8.875246047973633 C 13.19416999816895 8.954346656799316 12.65349006652832 8.994316101074219 12.17216014862061 8.994326591491699 Z" stroke="none"/>
      </g>
    </g>
    <g id="Group_1277" data-name="Group 1277">
      <path id="Hair_Back" data-name="Hair Back" d="M20.711,69.237l0-.039A21.5,21.5,0,0,1,0,47.713L-2.043,16.97C-2.043,5.1,9.626,0,21.5,0h5.75A21.5,21.5,0,0,1,48.735,20.693c3.7,14.144,8.25,43.805,3.392,48.544Z" transform="matrix(0.999, 0.035, -0.035, 0.999, 231.269, 105.445)"/>
      <g id="Head-8" data-name="Head" transform="matrix(0.999, 0.035, -0.035, 0.999, 235.366, 113.882)">
        <path id="Head-9" data-name="Head" d="M0,78.945,8.951,37.3C3.959,31.45.58,24.281,1.145,16.249,2.772-6.894,35.044-1.8,41.321,9.878s5.532,41.31-2.581,43.4c-3.236.833-10.129-1.207-17.144-5.428l4.4,31.1Z" transform="translate(0 0)" fill="#b28b67" stroke="#000" stroke-width="2"/>
      </g>
      <path id="Hair_Front" data-name="Hair Front" d="M34.4,63.529H2.987a56.232,56.232,0,0,1,.177-9.811,26.935,26.935,0,0,1,1.579-6.676,25.266,25.266,0,0,1,5.538-8.176C14.151,34.6,18.153,30.2,18.153,16.34c.225-.219.45-.441.667-.655l.007-.007C20.869,12,28.36,0,39,0c5.586,0,9.959,1.154,13.37,3.527a25.968,25.968,0,0,1,6.5,7.235l.009.013c-1.762,6.037-7.008,8.449-13.082,11.241a71.251,71.251,0,0,0-7.916,4.057,5.948,5.948,0,1,0-.374,9.518c.762,10.75.4,24.516-3.1,27.937Z" transform="matrix(0.999, 0.035, -0.035, 0.999, 211.072, 104.996)"/>
      <g id="Seat-2" data-name="Seat" transform="translate(178 324)">
        <path id="Seat_Stuff" data-name="Seat Stuff" d="M27.623,0h77.255L115,124H0Z" fill="#c5cfd6" stroke="#000" stroke-width="2"/>
        <path id="Seat_Stuff-2" data-name="Seat Stuff" d="M27.623,0h23.76L65.6,124H0Z" fill="rgba(0,0,0,0.1)" stroke="#000" stroke-width="2"/>
      </g>
      <path id="LegLower-4" data-name="LegLower" d="M1.36,127.671S-1.179,81.033.682,60.763c2.124-23.139,4.7-43.229,6.207-50.524,3.593-17.4,27.6-9.322,27.586,0C34.446,31.4,13.981,128.677,13.981,128.677Z" transform="translate(332.465 289.235) rotate(20)" fill="#ca9f7e" stroke="#000" stroke-width="2"/>
      <path id="LegLower-5" data-name="LegLower" d="M1.794,137.477c-1-12.651-2.861-56.444-1-76.715C2.918,37.624,5.494,17.533,7,10.238c3.593-17.4,27.6-9.322,27.586,0C34.558,31.4,15.243,131.151,14.235,137.457S2.423,145.428,1.794,137.477Z" transform="translate(345.413 299)" fill="#ca9f7e" stroke="#000" stroke-width="2"/>
      <path id="LegLower-6" data-name="LegLower" d="M0,111.841,5.118,10.331c3.688-17.553,34.907-9.406,34.894,0-.029,21.355-12.857,95.127-12.866,101.489Z" transform="translate(329.152 288.029) rotate(20)" stroke="#000" stroke-width="2"/>
      <path id="shoe-9" data-name="shoe" d="M4.474,5.033A2,2,0,0,0,1.908,6.381L0,13.106A64.242,64.242,0,0,0,.9,21H57.3s2.2-7.268-2.538-7.848-7.87-1.047-7.87-1.047L20.68.419a1,1,0,0,0-1.332.532L17.663,5.039s-4.385,2.046-7.127,2.046Z" transform="translate(290.452 397.384) rotate(30)" stroke="#000" stroke-miterlimit="10" stroke-width="2"/>
      <path id="shoe-10" data-name="shoe" d="M4.474,5.033A2,2,0,0,0,1.908,6.381L0,13.106A64.242,64.242,0,0,0,.9,21H57.3s2.2-7.268-2.538-7.848-7.87-1.047-7.87-1.047L20.68.419a1,1,0,0,0-1.332.532L17.663,5.039s-4.385,2.046-7.127,2.046Z" transform="translate(343 425)" stroke="#000" stroke-miterlimit="10" stroke-width="2"/>
      <path id="Leg_and_Butt-2" data-name="Leg and Butt" d="M170.77,36.433c0,26.567-12.617,88.537-12.625,94.387L131,130.841S136.96,47.9,135.227,47s-71.051,6.921-91.84,6.921C13.408,53.925,1.006,35.02,0,0H59.386c12.092,1.294,75.162,14.015,98.586,18.388C168,20.261,170.77,29.115,170.77,36.433Z" transform="translate(212 280)" stroke="#000" stroke-width="2"/>
      <path id="Arm-7" data-name="Arm" d="M7.954,0,38.583,25.061a85.864,85.864,0,0,1,21.2,9.836c1.3,1.319,2.826,3.933-2.829,3.2s-11.638-1.252-12.523.644,2.43,4.392.709,6.923q-1.721,2.53-14.279-13.89L0,17.038Z" transform="matrix(0.996, 0.087, -0.087, 0.996, 313.569, 266.767)" fill="#ca9f7e" stroke="#000" stroke-width="2"/>
      <path id="Arm-8" data-name="Arm" d="M59.265,0S29.035,71.8,24.933,77C22.927,79.548,10.72,85.981,2.474,89.386-.836,90.753-.179,93.542.769,94.447c7.71,7.362,14.93,2.129,23.37.188,9.247-2.126,6.187,8.778,13.492,7.21-1.072-5.026-4.046-14.587-.591-19.715,2.3-3.419,43.625-77.5,43.625-77.5Z" transform="matrix(0.978, -0.208, 0.208, 0.978, 125, 254.772)" fill="#ca9f7e" stroke="#000" stroke-width="2"/>
      <path id="Clothes_Back" data-name="Clothes Back" d="M0,2.231,8.485,0A125.144,125.144,0,0,0,28.157,33.741C49.266,60.1,77.374,76.277,88.293,82.05c14.937,7.9,14.7,15.984,16.517,21.718L96.7,111.755c-4.478.322-7.96,2.678-16.657.586S4.969,59.03,0,2.231Z" transform="matrix(0.996, 0.087, -0.087, 0.996, 249.889, 178.109)" fill="#cebbe1" stroke="#000" stroke-width="2"/>
      <path id="Union_1" data-name="Union 1" d="M4.4,149.983c1-5.516-1.859-8.648,0-20.972,3.09-20.478,4.679-37.724,11.479-52.653,6.811-14.954,9.6-25.531,17.26-35.346A152.594,152.594,0,0,1,67.477,9.254l.368-5.264A4,4,0,0,1,72.115.279L99.049,2.163a4,4,0,0,1,3.711,4.269l-.9,12.948c-1.355,40.657,4.383,65.221,12.616,81.634,4.586,9.143,18.041,12.5,15.215,21.3-6.779,21.118-71.66,43.821-82.887,23.119-6.819-12.572-8.049-29.094-5.9-46.625-3.248,8.447-5.969,16.3-7.763,22.866-2.88,10.54-8.572,24.352-16.03,32.156Z" transform="translate(162.201 170)" fill="#cebbe1" stroke="#000" stroke-width="2"/>
      <g id="Group_2" data-name="Group 2" transform="translate(125 105.096)">
        <circle id="Ellipse_1-2" data-name="Ellipse 1" cx="1.5" cy="1.5" r="1.5" transform="translate(139 31.904)"/>
        <circle id="Ellipse_2" data-name="Ellipse 2" cx="1.5" cy="1.5" r="1.5" transform="translate(150 31.904)"/>
        <path id="Path_1-2" data-name="Path 1" d="M436.451,579.112a30.161,30.161,0,0,1,6,.54" transform="matrix(0.978, -0.208, 0.208, 0.978, -409.941, -446.427)" fill="none" stroke="#000" stroke-linecap="round" stroke-width="2"/>
        <path id="Path_4" data-name="Path 4" d="M445.231,588.046l2.566,7.144h-4.925" transform="translate(-298 -551.096)" fill="none" stroke="#000" stroke-linecap="round" stroke-width="2"/>
        <path id="Path_5" data-name="Path 5" d="M436.451,579.112a30.161,30.161,0,0,1,6,.54" transform="matrix(0.995, -0.105, 0.105, 0.995, -346.239, -501.345)" fill="none" stroke="#000" stroke-linecap="round" stroke-width="2"/>
        <path id="Path_3-2" data-name="Path 3" d="M451.841,600.124s-3.517,2.571-8.115-1.577" transform="translate(-304 -550.096)" fill="none" stroke="#000" stroke-linecap="round" stroke-width="2"/>
      </g>
      <path id="Path_10" data-name="Path 10" d="M374.755,734.389s8.834-27.717,14.343-42.927" transform="translate(-173 -461)" fill="none" stroke="#000" stroke-linecap="round" stroke-width="2"/>
      <path id="Path_11" data-name="Path 11" d="M35.46,14.732S25.952,4.16,0,0" transform="matrix(-0.934, -0.358, 0.358, -0.934, 326.264, 289.374)" fill="none" stroke="#000" stroke-linecap="round" stroke-width="2"/>
      <path id="Path_12" data-name="Path 12" d="M424.455,743a9.82,9.82,0,0,1-3.324,2.086,23.607,23.607,0,0,1-5.51,1.459" transform="translate(796.788 -328.929) rotate(72)" fill="none" stroke="#000" stroke-linecap="round" stroke-width="2"/>
      <path id="Path_92" data-name="Path 92" d="M284.192,748.352c-.934.233-.467,4.085-10.737,2.218s-16.223,0-16.223,0" transform="translate(-31 -568)" fill="none" stroke="#000" stroke-linecap="round" stroke-width="2"/>
      <path id="Path_93" data-name="Path 93" d="M260.282,737.147c-.15,0-.25,5.953-.25,5.953" transform="translate(-22 -566)" fill="none" stroke="#000" stroke-linecap="round" stroke-width="2"/>
    </g>
    <g id="Group_18" data-name="Group 18" transform="translate(-28 -569)">
      <g id="Path_94" data-name="Path 94" transform="translate(747.273 920.42)" fill="#a2cfad">
        <path d="M 9.5484619140625 58.4732780456543 C 4.834821701049805 58.4732780456543 1.000001907348633 54.63845825195312 1.000001907348633 49.92481994628906 L 1.000001907348633 15.10742855072021 C 1.000001907348633 13.64239883422852 1.355749249458313 11.81835842132568 2.030994415283203 9.812862396240234 C 2.4080810546875 9.837632179260254 2.939489364624023 9.977165222167969 3.210651874542236 10.06818866729736 L 4.92601203918457 10.64402866363525 L 4.502021789550781 8.885619163513184 C 4.168825149536133 7.505867004394531 3.926178216934204 6.000286102294922 3.960962533950806 5.553975582122803 C 5.646992206573486 2.657933712005615 7.679466724395752 0.9999990463256836 9.5484619140625 0.9999990463256836 C 10.6255521774292 0.9999990463256836 11.70134162902832 1.321768999099731 12.74594211578369 1.956379055976868 C 13.73543167114258 2.557508945465088 14.68845176696777 3.445158958435059 15.50197219848633 4.523368835449219 C 17.12685203552246 6.67690896987915 18.09692192077637 9.396108627319336 18.09692192077637 11.79723930358887 L 18.09692192077637 49.92481994628906 C 18.09692192077637 54.63845825195312 14.2621021270752 58.4732780456543 9.5484619140625 58.4732780456543 Z" stroke="none"/>
        <path d="M 9.5484619140625 2 C 8.830021858215332 2 8.052131652832031 2.349567413330078 7.236392021179199 3.039009094238281 C 6.44688892364502 3.706283569335938 5.66634464263916 4.663337707519531 4.965156555175781 5.821449279785156 C 5.002776145935059 6.378429412841797 5.216691970825195 7.584053039550781 5.474031448364258 8.650680541992188 L 6.326601982116699 12.1779899597168 L 2.889091491699219 11.01508712768555 C 2.839876174926758 10.99843597412109 2.780788421630859 10.98029708862305 2.715917587280273 10.96190643310547 C 2.250986099243164 12.52666091918945 2.000001907348633 13.96835708618164 2.000001907348633 15.10742950439453 L 2.000001907348633 49.92481994628906 C 2.000001907348633 54.0870475769043 5.386232376098633 57.4732780456543 9.5484619140625 57.4732780456543 C 13.71069145202637 57.4732780456543 17.09692192077637 54.0870475769043 17.09692192077637 49.92481994628906 L 17.09692192077637 11.79723739624023 C 17.09692192077637 9.6385498046875 16.17989158630371 7.082149505615234 14.70371246337891 5.125679016113281 C 13.20493125915527 3.139259338378906 11.3259220123291 2 9.5484619140625 2 M 9.5484619140625 0 C 14.82193183898926 0 19.09692192077637 6.523769378662109 19.09692192077637 11.79723739624023 L 19.09692192077637 49.92481994628906 C 19.09692192077637 55.19828796386719 14.82193183898926 59.4732780456543 9.5484619140625 59.4732780456543 C 4.274991989135742 59.4732780456543 1.9073486328125e-06 55.19828796386719 1.9073486328125e-06 49.92481994628906 L 1.9073486328125e-06 15.10742950439453 C 1.9073486328125e-06 13.46979904174805 0.412261962890625 11.39237976074219 1.211782455444336 9.120559692382812 C 1.29383659362793 8.886932373046875 1.578804016113281 8.809047698974609 1.922218322753906 8.809040069580078 C 2.609107971191406 8.80902099609375 3.530012130737305 9.120559692382812 3.530012130737305 9.120559692382812 C 3.530012130737305 9.120559692382812 2.709201812744141 5.724658966064453 3.038061141967773 5.152359008789062 C 4.668031692504883 2.313217163085938 6.990812301635742 0 9.5484619140625 0 Z" stroke="none"/>
      </g>
      <g id="Path_95" data-name="Path 95" transform="translate(752.093 936.789)" fill="#6ac98a">
        <path d="M 21.64241218566895 36.64822006225586 C 19.05066108703613 36.64822006225586 16.91075134277344 36.41479110717773 15.10040092468262 35.93460083007812 C 13.2763614654541 35.45077896118164 11.8309211730957 34.72787094116211 10.6815013885498 33.72457885742188 C 9.517741203308105 32.70877075195312 8.672281265258789 31.4167594909668 8.096831321716309 29.77470970153809 C 7.495111465454102 28.05772018432617 7.202611446380615 26.00868034362793 7.202611446380615 23.51049041748047 C 7.202611446380615 20.94854927062988 7.522041320800781 18.24107933044434 8.126361846923828 15.68076992034912 C 8.772021293640137 12.94534969329834 9.70409107208252 10.47716045379639 10.8966817855835 8.344770431518555 C 12.77062129974365 4.994120121002197 16.15606117248535 1 21.64241218566895 1 C 24.16389274597168 1 26.27817916870117 1.691068887710571 28.1021900177002 3.112066984176636 C 28.14666366577148 3.25441312789917 28.26124572753906 3.786576271057129 28.10612106323242 5.191770076751709 C 28.00084114074707 6.145420074462891 27.82724189758301 6.989930152893066 27.82550048828125 6.998350143432617 L 27.50349044799805 8.555270195007324 L 29.04624176025391 8.171540260314941 C 29.05890083312988 8.168410301208496 30.36501121520996 7.8471999168396 31.28561210632324 7.8471999168396 C 31.41744041442871 7.8471999168396 31.51385116577148 7.854251384735107 31.5816593170166 7.86254358291626 C 33.04161834716797 11.10848808288574 33.81208038330078 15.69276332855225 33.81208038330078 21.14608955383301 C 33.81208038330078 26.61994934082031 33.0165901184082 30.29747009277344 31.3086109161377 32.71945190429688 C 30.3923511505127 34.01874923706055 29.20987129211426 34.96490859985352 27.6935920715332 35.61199188232422 C 26.08238220214844 36.29957962036133 24.04647064208984 36.64822006225586 21.64241218566895 36.64822006225586 Z" stroke="none"/>
        <path d="M 21.64241218566895 2 C 19.59894180297852 2 17.70459175109863 2.617408752441406 16.01198196411133 3.835071563720703 C 14.4050407409668 4.991100311279297 12.97765159606934 6.672609329223633 11.76945114135742 8.832889556884766 C 9.536001205444336 12.82634925842285 8.202602386474609 18.31329917907715 8.202602386474609 23.51049041748047 C 8.202602386474609 25.86106872558594 8.484531402587891 27.85739135742188 9.040552139282227 29.4439811706543 C 9.557271957397461 30.91841888427734 10.30913162231445 32.07218933105469 11.33909225463867 32.97121047973633 C 13.4028205871582 34.77256011962891 16.77306175231934 35.64822006225586 21.64241218566895 35.64822006225586 C 25.99321174621582 35.64822006225586 28.80503082275391 34.53446197509766 30.49138259887695 32.14313888549805 C 32.07465362548828 29.89797973632812 32.81207275390625 26.40359115600586 32.81207275390625 21.14608955383301 C 32.81207275390625 16.16036033630371 32.16048431396484 11.94117546081543 30.92169189453125 8.864791870117188 C 30.35891532897949 8.912986755371094 29.66145896911621 9.049667358398438 29.28772163391113 9.141950607299805 L 26.20033264160156 9.910289764404297 L 26.84639167785645 6.795019149780273 C 27.08160018920898 5.660825729370117 27.22052764892578 4.317630767822266 27.18260192871094 3.672477722167969 C 25.5971794128418 2.533226013183594 23.82368087768555 2 21.64241218566895 2 M 21.64241218566895 0 C 24.53919219970703 0 26.84415054321289 0.8345985412597656 28.80472183227539 2.392410278320312 C 29.66122055053711 3.071140289306641 28.80472183227539 7.201150894165039 28.80472183227539 7.201150894165039 C 28.80472183227539 7.201150894165039 30.22682189941406 6.84724235534668 31.28560638427734 6.847198486328125 C 31.81509780883789 6.847177505493164 32.25357818603516 6.935653686523438 32.37818908691406 7.201150894165039 C 34.16238021850586 10.99961090087891 34.81207275390625 16.11425971984863 34.81207275390625 21.14608955383301 C 34.81207275390625 31.54236030578613 32.03868103027344 37.64822006225586 21.64241218566895 37.64822006225586 C 11.24614143371582 37.64822006225586 6.202602386474609 33.90676116943359 6.202602386474609 23.51049041748047 C 6.202602386474609 13.11421966552734 11.24614143371582 0 21.64241218566895 0 Z" stroke="none"/>
      </g>
      <g id="Group_17" data-name="Group 17" transform="translate(737.993 968.117)">
        <path id="Path_21-2" data-name="Path 21" d="M1667.993,360.418h53.1l-8.335,44.07h-37.664Z" transform="translate(-1667.993 -360.418)" fill="#ee7f6c" stroke="#000" stroke-width="2"/>
        <path id="Path_25-2" data-name="Path 25" d="M275.366,825.272l-3.823,21.273" transform="translate(-228.593 -813.256)" fill="none" stroke="#fff" stroke-linecap="round" stroke-width="2"/>
        <path id="Path_42-2" data-name="Path 42" d="M278.232,825.272l-.382,1.778" transform="translate(-230.368 -819.804)" fill="none" stroke="#fff" stroke-linecap="round" stroke-width="2"/>
      </g>
      <path id="Path_96" data-name="Path 96" d="M202.731,1363.357s-1.959,6.051-1.959,9.793a36.729,36.729,0,0,0,1.119,7.975" transform="translate(572.566 -413.279)" fill="none" stroke="#000" stroke-linecap="round" stroke-width="2"/>
      <path id="Path_97" data-name="Path 97" d="M203.653,1365.507s-.686,9.716-.686,14.106" transform="translate(552.762 -419.098)" fill="none" stroke="#000" stroke-linecap="round" stroke-width="2"/>
      <path id="Path_98" data-name="Path 98" d="M204.255,1341.3s-.126,1.86-.294,4.491" transform="translate(551.475 -377.614)" fill="none" stroke="#000" stroke-linecap="round" stroke-width="2"/>
    </g>
  </g>
</svg>
